<!DOCTYPE svg PUBLIC "-//W3C//DTD SVG 1.1//EN" "http://www.w3.org/Graphics/SVG/1.1/DTD/svg11.dtd">
<!-- Uploaded to: SVG Repo, www.svgrepo.com, Transformed by: SVG Repo Mixer Tools -->
<svg fill="#000000" height="800px" width="800px" version="1.1" id="Layer_1" xmlns="http://www.w3.org/2000/svg" xmlns:xlink="http://www.w3.org/1999/xlink" viewBox="0 0 478 478" xml:space="preserve" stroke="#000000">
<g id="SVGRepo_bgCarrier" stroke-width="0"/>
<g id="SVGRepo_tracerCarrier" stroke-linecap="round" stroke-linejoin="round"/>
<g id="SVGRepo_iconCarrier"> <g> <path d="M341.024,41.327V30h15.001V0H121.976v30h15v11.327c-18.297,4.647-31.834,21.226-31.834,40.97v92.698 c80.682-49.56,172.764-78.298,266.934-83.22l0.782-0.041v-9.438C372.858,62.553,359.322,45.975,341.024,41.327z"/> <path d="M105.142,210.476v203.895c76.512-76.529,164.256-139.67,261.038-187.785l6.678-3.32V121.782 c-91.885,4.939-181.654,33.82-259.653,83.553L105.142,210.476z"/> <path d="M115.91,446.173l-6.932,7.147c6.675,14.561,21.369,24.68,38.435,24.68h183.174c23.346,0,42.271-18.925,42.271-42.271 V256.813C277.221,305.279,190.802,368.953,115.91,446.173z"/> </g> </g>
</svg>