<svg xmlns="http://www.w3.org/2000/svg" version="1.0" width="1500.000000pt" height="1500.000000pt" viewBox="0 0 1500.000000 1500.000000" preserveAspectRatio="xMidYMid meet">
<metadata fill="#ffffff">
Created by potrace 1.10, written by Peter Selinger 2001-2011
</metadata>
<g transform="translate(0.000000,1500.000000) scale(0.100000,-0.100000)" fill="#ffffff" stroke="none">
<path d="M6615 14200 c-110 -4 -218 -12 -240 -18 -22 -6 -127 -11 -240 -12 -148 0 -210 -4 -240 -15 -22 -8 -71 -14 -110 -15 -38 0 -104 -7 -145 -15 -162 -32 -228 -47 -310 -70 -47 -13 -103 -26 -125 -29 -22 -4 -56 -13 -75 -20 -19 -7 -62 -21 -95 -31 -33 -9 -72 -23 -87 -31 -14 -8 -35 -14 -45 -14 -11 0 -28 -7 -39 -15 -10 -8 -28 -15 -38 -15 -11 0 -27 -6 -35 -13 -9 -7 -34 -19 -56 -26 -38 -13 -75 -29 -235 -103 -35 -17 -81 -33 -102 -36 -21 -2 -43 -11 -49 -18 -6 -8 -19 -14 -29 -14 -9 0 -42 -13 -73 -30 -31 -16 -63 -30 -71 -30 -7 0 -19 -7 -26 -15 -7 -8 -20 -15 -30 -15 -21 0 -168 -68 -176 -81 -3 -5 -12 -9 -21 -9 -19 0 -176 -79 -229 -115 -21 -15 -48 -31 -59 -36 -23 -11 -33 -17 -196 -128 -68 -46 -142 -98 -164 -116 -22 -17 -50 -37 -63 -44 -13 -7 -31 -19 -40 -27 -9 -9 -53 -43 -97 -77 -44 -34 -100 -79 -125 -99 -25 -20 -85 -69 -135 -108 -166 -132 -644 -574 -785 -726 -60 -64 -110 -128 -110 -141 0 -10 -64 -105 -111 -164 -19 -24 -47 -63 -62 -86 -15 -24 -38 -60 -52 -81 -14 -21 -25 -42 -25 -47 0 -4 -18 -32 -40 -61 -22 -29 -40 -55 -40 -58 0 -3 -13 -25 -30 -49 -16 -25 -30 -47 -30 -50 0 -4 -13 -25 -29 -49 -16 -24 -46 -76 -67 -116 -77 -144 -90 -168 -115 -207 -14 -22 -80 -152 -148 -290 -68 -137 -127 -257 -132 -265 -5 -8 -12 -22 -15 -30 -3 -8 -13 -33 -21 -55 -8 -22 -20 -51 -26 -65 -5 -14 -20 -52 -32 -85 -12 -33 -36 -96 -53 -140 -16 -44 -36 -96 -42 -115 -7 -19 -19 -50 -26 -68 -8 -18 -14 -43 -14 -55 0 -12 -7 -35 -15 -51 -8 -15 -15 -38 -15 -50 0 -11 -7 -34 -15 -50 -8 -15 -15 -39 -15 -51 0 -13 -5 -36 -11 -52 -14 -36 -37 -163 -54 -293 -7 -58 -18 -127 -23 -155 -6 -27 -16 -122 -22 -210 -6 -88 -16 -212 -22 -275 -21 -232 -21 -431 2 -675 23 -243 47 -412 79 -560 24 -109 51 -280 51 -320 0 -25 42 -176 71 -260 6 -16 15 -46 19 -65 5 -19 15 -53 24 -75 41 -107 68 -185 82 -235 8 -30 27 -80 41 -110 32 -70 101 -210 113 -230 20 -35 190 -390 190 -399 0 -9 52 -122 70 -151 5 -8 23 -43 41 -77 18 -35 41 -70 51 -80 10 -9 18 -20 18 -25 0 -5 12 -27 27 -51 27 -41 58 -96 105 -187 12 -25 35 -63 50 -84 16 -21 28 -43 28 -47 0 -5 13 -28 29 -51 16 -24 45 -68 64 -98 76 -118 234 -288 649 -703 181 -180 361 -353 400 -385 39 -31 103 -83 142 -115 39 -31 97 -74 129 -95 32 -20 87 -58 122 -84 35 -27 68 -48 73 -48 5 0 28 -14 50 -30 23 -17 45 -30 48 -30 4 0 50 -26 103 -58 53 -32 110 -65 126 -74 84 -44 149 -81 189 -108 24 -17 51 -30 59 -30 9 0 18 -4 21 -9 6 -9 266 -141 279 -141 3 0 44 -17 89 -39 46 -21 94 -42 108 -46 14 -4 30 -11 36 -16 6 -5 42 -18 80 -30 38 -12 78 -28 89 -35 11 -8 27 -14 37 -14 9 0 34 -7 55 -16 21 -9 52 -22 68 -29 17 -7 58 -23 93 -35 34 -13 65 -27 68 -31 3 -5 16 -9 30 -9 14 0 34 -5 45 -10 10 -6 38 -15 61 -20 94 -21 206 -48 263 -65 114 -34 280 -70 390 -84 39 -5 86 -14 105 -20 19 -6 58 -11 86 -11 29 0 58 -6 70 -15 10 -8 31 -15 46 -15 15 0 39 -5 55 -11 15 -6 78 -15 138 -19 61 -5 173 -18 250 -29 189 -28 406 -36 600 -22 88 7 212 14 275 17 63 3 142 11 175 19 33 7 79 13 103 14 24 1 55 7 70 13 15 6 63 14 107 19 126 13 538 83 556 95 15 9 178 55 264 74 130 29 190 47 236 70 44 22 65 28 171 49 32 7 70 18 85 26 16 8 35 15 44 15 62 0 480 181 560 242 20 15 40 28 43 28 6 0 29 14 143 87 28 18 54 33 57 33 6 0 193 127 206 140 3 3 25 16 50 29 77 42 263 162 312 203 26 21 50 38 55 38 5 0 20 9 33 19 59 46 275 207 298 223 14 9 28 20 31 25 3 5 31 26 61 46 31 20 125 95 210 168 84 73 174 147 199 166 63 48 284 265 343 338 27 33 64 78 81 99 18 22 47 56 64 75 18 20 33 39 33 42 0 4 13 22 30 40 16 19 30 39 30 46 0 7 6 16 13 20 7 4 24 26 38 48 14 22 47 65 73 95 26 30 53 65 59 77 7 12 44 75 84 140 39 65 84 143 101 173 16 30 44 82 62 115 19 33 42 76 52 95 10 19 31 58 47 85 28 49 179 350 206 410 14 31 20 45 73 175 17 41 34 93 37 115 10 64 56 257 71 295 8 19 21 78 29 130 9 52 22 111 29 130 8 19 22 80 32 135 9 55 24 117 31 139 7 21 13 55 13 76 0 21 7 57 15 80 8 23 15 58 15 77 0 18 7 50 15 70 10 23 15 69 15 135 0 58 5 108 12 121 14 25 21 125 43 577 8 179 12 370 9 425 -7 120 -39 376 -54 425 -5 19 -10 51 -10 70 0 19 -7 57 -15 84 -8 27 -15 66 -15 87 0 34 -13 75 -41 131 -19 37 -49 134 -49 156 0 13 -5 33 -12 45 -34 63 -131 368 -164 517 -3 14 -12 39 -20 57 -8 17 -14 38 -14 46 0 9 -7 28 -15 44 -27 52 -75 163 -75 173 0 5 -20 49 -44 97 -24 48 -51 113 -62 143 -10 30 -23 62 -30 70 -6 8 -21 36 -32 63 -12 26 -26 47 -31 47 -6 0 -11 8 -11 19 0 10 -7 24 -15 31 -8 7 -15 17 -15 22 0 6 -13 27 -30 48 -16 21 -30 40 -30 43 0 3 -17 32 -38 64 -21 32 -49 78 -63 103 -13 25 -36 63 -51 84 -16 21 -28 43 -28 47 0 4 -20 36 -43 71 -99 144 -150 222 -179 275 -9 17 -41 57 -70 88 -28 31 -62 71 -74 89 -13 18 -41 52 -63 75 -23 24 -58 64 -78 89 -20 26 -44 54 -53 62 -9 8 -62 67 -117 130 -55 63 -124 137 -154 164 -30 27 -112 106 -184 176 -125 121 -245 219 -330 270 -33 20 -123 76 -220 138 -11 6 -31 17 -45 23 -14 6 -39 21 -57 35 -17 13 -35 24 -39 24 -3 0 -70 42 -148 94 -77 51 -154 101 -171 110 -16 9 -43 25 -60 35 -34 22 -445 227 -545 273 -110 50 -124 56 -290 118 -127 47 -161 60 -206 81 -23 10 -48 19 -57 19 -9 0 -19 5 -22 10 -3 6 -14 10 -23 10 -9 0 -30 7 -46 15 -15 8 -39 15 -52 15 -13 0 -38 6 -56 14 -81 33 -280 88 -408 112 -125 23 -282 55 -345 69 -33 8 -82 17 -110 20 -27 3 -63 10 -80 15 -16 5 -64 11 -105 14 -41 2 -88 9 -103 15 -16 6 -75 11 -133 11 -65 0 -117 5 -137 14 -41 17 -455 26 -742 16z m715 -69 c102 -9 185 -20 320 -43 36 -6 99 -14 140 -18 89 -9 341 -53 425 -74 33 -9 72 -15 86 -16 15 0 49 -6 75 -14 58 -17 131 -34 194 -46 44 -8 85 -20 145 -45 42 -17 95 -35 130 -45 44 -13 89 -32 186 -78 48 -23 96 -42 106 -42 11 0 28 -7 39 -15 10 -8 30 -15 44 -15 14 0 38 -7 54 -15 15 -8 33 -15 38 -15 10 0 91 -34 120 -50 10 -6 26 -10 37 -10 10 0 24 -6 30 -14 7 -8 26 -17 44 -20 31 -6 205 -91 337 -165 8 -5 35 -18 60 -30 25 -12 52 -26 60 -31 8 -5 56 -32 105 -61 50 -29 115 -72 146 -95 64 -49 104 -74 174 -109 28 -13 57 -29 65 -34 15 -10 226 -138 258 -156 168 -98 584 -487 780 -730 45 -55 110 -131 145 -170 150 -163 241 -282 294 -382 20 -38 42 -72 48 -78 12 -10 125 -178 138 -205 4 -8 15 -27 25 -42 43 -67 182 -297 182 -303 0 -3 5 -11 10 -18 39 -46 50 -61 50 -69 0 -4 11 -26 25 -48 14 -22 25 -45 25 -51 0 -6 6 -25 14 -42 8 -18 31 -72 51 -122 46 -113 63 -152 80 -190 35 -77 45 -104 45 -118 0 -9 4 -18 9 -22 5 -3 19 -38 31 -78 11 -39 25 -79 30 -88 5 -9 12 -34 16 -55 18 -104 58 -236 81 -269 7 -11 13 -29 13 -40 0 -11 7 -29 15 -39 8 -11 15 -34 15 -52 0 -17 7 -37 15 -44 8 -7 15 -27 15 -45 0 -19 6 -46 14 -62 21 -43 46 -125 46 -153 0 -13 6 -42 14 -65 8 -22 20 -80 26 -130 6 -49 18 -126 25 -170 31 -180 37 -395 25 -805 -12 -422 -26 -557 -64 -599 -19 -20 -27 -21 -313 -21 l-295 0 -73 74 c-79 80 -107 93 -179 82 -44 -7 -103 -51 -126 -96 -7 -14 -14 -50 -14 -80 -1 -96 48 -154 151 -175 51 -10 108 11 160 61 27 25 57 49 68 54 12 4 146 9 299 9 237 2 282 -1 302 -14 27 -17 32 -61 12 -98 -6 -12 -18 -58 -25 -102 -7 -44 -17 -100 -21 -125 -4 -25 -12 -51 -16 -59 -5 -8 -12 -41 -16 -75 -4 -33 -12 -74 -18 -91 -15 -41 -32 -127 -41 -205 -4 -36 -12 -74 -18 -85 -6 -11 -20 -60 -32 -110 -25 -99 -48 -179 -61 -210 -5 -11 -18 -48 -29 -83 -12 -34 -25 -70 -30 -80 -5 -9 -17 -37 -27 -62 -39 -101 -135 -311 -150 -330 -6 -8 -15 -26 -19 -40 -4 -14 -13 -35 -21 -47 -16 -25 -66 -117 -106 -193 -16 -30 -44 -82 -63 -115 -19 -33 -39 -69 -45 -80 -28 -51 -210 -327 -268 -405 -169 -226 -370 -466 -492 -590 -52 -52 -308 -283 -360 -324 -81 -65 -643 -488 -670 -505 -15 -9 -71 -46 -126 -82 -54 -36 -119 -78 -144 -93 -69 -42 -76 -46 -193 -123 -60 -40 -111 -73 -113 -73 -3 0 -35 -20 -72 -44 -74 -48 -372 -196 -395 -196 -8 0 -20 -7 -27 -15 -13 -16 -57 -20 -77 -7 -9 6 -13 141 -15 539 l-2 531 57 56 c56 56 57 57 57 115 0 51 -4 62 -34 97 l-34 39 -80 0 c-72 0 -82 -2 -104 -25 -72 -75 -65 -171 19 -238 l38 -30 3 -561 2 -562 -26 -24 c-15 -14 -33 -25 -41 -25 -8 0 -35 -9 -61 -19 -26 -11 -74 -27 -107 -36 -33 -9 -80 -22 -105 -30 -25 -7 -61 -16 -81 -18 -20 -3 -63 -17 -95 -32 -112 -50 -125 -55 -147 -55 -12 0 -39 -6 -62 -14 -22 -8 -62 -19 -90 -24 -27 -6 -88 -20 -135 -31 -116 -26 -177 -38 -300 -57 -244 -37 -311 -45 -415 -54 -60 -5 -141 -14 -180 -21 -100 -17 -906 -17 -1000 0 -38 7 -119 16 -180 21 -60 5 -144 16 -185 25 -41 9 -124 23 -185 31 -60 7 -155 23 -210 34 -55 12 -127 25 -160 31 -33 5 -71 13 -85 18 -14 6 -59 17 -100 26 -41 9 -88 23 -103 31 -16 7 -37 14 -48 14 -10 0 -53 12 -96 26 -43 14 -91 30 -108 34 -16 5 -75 25 -130 44 -55 20 -129 46 -165 58 -36 12 -72 27 -80 33 -8 7 -26 15 -40 18 -41 9 -100 33 -112 45 -7 7 -18 12 -26 12 -8 0 -26 6 -40 14 -50 25 -117 54 -157 66 -22 7 -47 18 -55 25 -8 7 -26 16 -40 20 -14 4 -41 18 -60 30 -19 12 -42 25 -50 28 -8 4 -28 16 -45 27 -16 11 -36 22 -42 25 -7 3 -19 7 -25 10 -7 3 -26 14 -43 24 -16 11 -74 42 -128 70 -53 28 -128 72 -165 97 -37 26 -80 54 -97 63 -86 47 -263 174 -273 195 -15 34 -18 495 -3 524 6 11 26 31 43 43 62 43 77 68 78 132 0 73 -24 111 -89 139 -39 16 -52 18 -89 8 -48 -12 -102 -47 -102 -66 0 -6 -7 -17 -15 -24 -21 -17 -19 -98 3 -131 9 -14 29 -37 44 -51 28 -25 62 -103 53 -118 -3 -4 -7 -83 -9 -174 -4 -157 -11 -196 -36 -196 -14 0 -136 94 -221 169 -46 41 -138 129 -204 196 -66 66 -185 184 -265 261 -80 76 -179 177 -220 224 -41 46 -95 105 -119 130 -23 25 -50 56 -59 70 -9 14 -37 52 -63 85 -49 65 -109 153 -109 161 0 3 -11 20 -24 37 -14 18 -29 43 -35 57 -6 14 -15 33 -21 43 -11 18 -14 25 -56 102 -25 47 -54 92 -132 205 -17 26 -40 71 -52 100 -12 30 -26 59 -31 64 -5 6 -9 17 -9 26 0 9 -14 43 -30 75 -16 32 -30 63 -30 68 0 5 -16 32 -35 61 -19 29 -51 88 -71 132 -20 43 -50 108 -66 144 -17 36 -34 74 -39 85 -5 11 -13 27 -18 35 -27 49 -41 80 -41 97 0 10 -4 23 -8 29 -4 5 -18 36 -31 69 -13 33 -34 83 -46 110 -13 28 -26 66 -30 85 -4 19 -13 45 -21 57 -8 12 -14 32 -14 45 0 12 -6 40 -14 63 -59 175 -106 360 -106 423 0 27 -7 71 -15 98 -8 27 -15 68 -15 92 0 23 -4 50 -10 60 -25 45 -76 499 -86 767 -4 103 -1 205 10 325 10 96 21 245 26 330 5 85 14 178 19 205 6 28 17 95 26 150 8 55 20 125 26 155 6 30 15 78 20 105 4 28 18 82 29 120 12 39 25 86 29 106 4 19 12 42 16 49 5 8 12 32 16 55 13 68 37 142 54 169 24 37 63 43 220 34 77 -4 306 -7 509 -6 l369 2 56 -63 c45 -50 65 -64 98 -72 89 -19 173 23 207 105 34 82 9 165 -64 215 -38 26 -55 31 -102 31 l-57 0 -71 -70 c-39 -38 -74 -70 -78 -71 -4 0 -232 -2 -507 -3 -317 -2 -505 0 -512 7 -22 16 -14 65 22 143 19 41 35 79 35 85 0 6 6 23 14 37 8 15 17 34 20 42 3 8 10 22 15 30 6 8 28 53 49 100 49 106 90 189 105 215 21 35 61 100 75 120 6 11 17 29 22 40 6 11 19 34 29 50 10 17 36 64 57 105 21 41 58 108 81 148 24 41 43 76 43 80 0 3 6 13 14 21 8 9 22 32 33 51 10 19 37 62 58 95 22 33 51 81 65 107 48 90 89 154 110 173 11 10 20 24 20 32 0 7 4 13 10 13 5 0 19 17 30 38 12 20 31 51 43 67 12 17 40 55 62 85 40 56 110 135 154 174 12 12 42 39 65 61 22 23 77 74 121 115 44 40 112 103 151 139 39 36 84 77 100 91 188 164 276 236 424 349 96 73 220 167 276 209 56 42 110 83 120 90 10 7 57 40 104 73 47 34 94 65 105 70 29 13 55 31 84 57 15 13 38 26 54 29 15 3 30 9 32 14 3 4 54 31 113 59 59 28 134 64 166 81 32 16 67 29 76 29 10 0 23 7 30 15 7 8 20 15 29 15 9 0 43 14 75 30 32 17 66 30 75 30 9 0 25 6 36 13 11 8 67 29 125 47 58 18 121 43 140 55 20 13 61 33 90 44 30 12 68 29 83 37 16 8 35 14 44 14 8 0 27 6 41 14 34 17 90 37 122 43 14 2 34 8 45 12 100 40 134 51 155 51 14 0 61 11 105 25 44 14 91 25 105 25 14 0 72 12 129 26 57 14 109 23 116 20 6 -2 45 2 86 10 41 8 103 14 139 14 36 1 92 7 125 15 46 11 145 15 430 16 204 1 384 5 400 10 34 9 287 4 445 -10z" fill="#ffffff"/>
<path d="M6642 13874 c-78 -6 -147 -15 -152 -20 -15 -15 -14 -742 0 -760 17 -19 732 -19 926 1 79 8 241 15 369 15 133 0 232 3 238 9 16 16 1 38 -57 80 -30 23 -63 52 -73 67 -10 14 -39 50 -64 80 -29 33 -51 72 -58 99 -6 24 -11 122 -11 218 0 156 -2 177 -19 198 l-18 23 -469 0 c-258 1 -533 -4 -612 -10z m881 -314 c14 -16 29 -39 32 -51 9 -26 -19 -66 -64 -93 -29 -17 -33 -17 -66 -2 -68 33 -86 99 -40 149 21 21 35 27 70 27 36 0 48 -5 68 -30z m-669 -11 c28 -22 35 -64 16 -99 -22 -41 -129 -48 -150 -9 -16 29 -12 84 8 101 38 33 89 36 126 7z m345 -4 c49 -25 50 -119 2 -144 -34 -19 -92 -13 -118 11 -32 30 -33 110 -1 132 28 20 80 20 117 1z" fill="#ffffff"/>
<path d="M8185 13548 l-25 -20 -1 -496 c-1 -274 -1 -671 -2 -883 0 -212 2 -393 6 -402 5 -15 9 -15 37 0 l31 15 -6 64 c-10 91 -11 734 -1 762 4 13 17 27 29 31 12 5 262 9 556 10 294 1 538 4 543 7 18 11 6 47 -30 87 -21 23 -53 62 -72 87 -19 25 -57 72 -85 105 -65 76 -95 126 -94 156 0 13 18 56 40 94 21 39 41 77 45 85 3 8 23 51 44 95 62 130 82 182 78 202 -3 17 -28 18 -535 20 -519 1 -533 1 -558 -19z" fill="#ffffff"/>
<path d="M3872 13185 l-27 -23 -1 -314 c-1 -172 1 -403 5 -513 4 -126 2 -260 -6 -363 -13 -179 -20 -813 -9 -831 10 -16 33 -14 40 5 3 9 6 145 6 302 0 243 9 429 25 517 2 11 11 29 19 40 14 20 29 20 788 25 l773 5 3 21 c2 12 -9 32 -26 50 -16 16 -54 58 -84 94 -29 36 -88 106 -129 155 -128 154 -172 216 -172 244 0 24 75 141 154 242 16 20 29 41 29 47 0 5 14 27 31 48 72 91 159 220 159 236 0 9 -4 20 -10 23 -5 3 -354 7 -775 9 l-766 4 -27 -23z" fill="#ffffff"/>
<path d="M6810 12553 c-57 -11 -120 -102 -120 -174 0 -56 31 -103 85 -129 24 -11 49 -27 55 -35 8 -9 10 -67 8 -186 l-3 -171 -35 -27 c-19 -14 -55 -48 -81 -74 -36 -39 -54 -49 -85 -52 -21 -3 -451 -6 -954 -9 -676 -3 -920 -1 -931 8 -9 6 -27 31 -42 56 -14 25 -40 58 -56 74 -25 24 -38 28 -81 27 -62 -1 -102 -23 -135 -73 -49 -74 -42 -163 19 -234 33 -38 35 -39 95 -37 56 1 67 5 108 40 25 21 53 44 63 51 28 20 1908 30 1942 10 61 -34 169 -123 173 -142 3 -11 7 -311 9 -666 1 -355 6 -658 10 -675 12 -51 -9 -67 -100 -75 -75 -7 -108 -13 -269 -47 -113 -23 -253 -72 -360 -125 -126 -63 -120 -59 -275 -165 -67 -46 -196 -161 -266 -238 -88 -96 -129 -152 -204 -271 -60 -95 -83 -112 -131 -95 -21 7 -149 11 -386 11 -284 0 -359 3 -381 14 -15 8 -47 38 -72 67 l-45 54 -3 797 c-3 878 -6 833 58 880 17 12 30 27 30 34 0 6 7 17 15 24 19 16 20 92 1 128 -8 15 -26 38 -41 52 -24 22 -35 25 -105 25 -74 0 -81 -2 -110 -30 -86 -81 -78 -160 26 -263 l44 -44 1 -766 c1 -422 0 -780 -1 -797 -2 -36 -13 -54 -78 -123 l-50 -53 -1235 2 c-1180 1 -1237 2 -1266 20 -16 10 -37 31 -45 47 -8 16 -35 39 -59 52 -41 22 -48 23 -88 11 -24 -7 -58 -28 -76 -46 -27 -27 -33 -41 -33 -75 0 -41 31 -110 50 -110 4 0 16 -12 26 -27 18 -27 18 -67 15 -878 -3 -838 -3 -851 17 -875 19 -24 25 -25 175 -30 137 -4 159 -7 184 -26 45 -34 90 -54 119 -54 39 0 94 38 110 76 38 92 -13 174 -109 174 -36 0 -54 -7 -93 -37 l-49 -38 -115 -3 c-90 -3 -119 0 -135 11 -20 15 -20 27 -20 814 0 439 4 812 8 830 5 19 24 45 47 63 l38 30 743 0 c409 0 983 -3 1276 -7 l532 -6 42 -38 c71 -63 144 -62 217 2 l43 37 362 4 c199 1 374 1 390 -1 43 -5 53 -35 29 -90 -26 -58 -51 -134 -62 -189 -5 -23 -14 -51 -20 -61 -5 -11 -10 -31 -10 -45 0 -14 -7 -51 -15 -83 -11 -43 -15 -115 -15 -289 0 -180 3 -241 15 -274 8 -23 15 -55 15 -71 0 -16 6 -46 14 -66 8 -21 26 -74 39 -118 14 -44 37 -109 51 -145 73 -193 287 -486 456 -627 36 -30 81 -68 100 -85 19 -16 69 -52 110 -78 117 -76 117 -76 104 -97 -11 -17 -40 -18 -544 -21 l-532 -2 -36 37 c-81 83 -128 94 -192 43 -66 -53 -75 -122 -25 -195 20 -31 25 -50 25 -104 2 -955 -1 -1274 -14 -1299 -19 -36 -95 -109 -126 -120 -14 -6 -409 -13 -918 -17 l-893 -7 -32 37 c-32 38 -48 53 -102 98 -35 29 -32 -35 -27 555 l2 364 30 30 c68 67 80 144 32 196 -52 55 -133 55 -185 -1 -58 -62 -58 -114 -1 -181 19 -22 34 -47 35 -55 0 -9 0 -214 -1 -456 l-1 -440 -29 -45 c-16 -25 -39 -64 -52 -87 -21 -41 -21 -43 -4 -75 44 -81 133 -97 241 -43 l60 30 903 3 c497 2 919 1 939 -3 40 -7 143 -102 143 -131 0 -11 1 -296 4 -635 l4 -616 -24 -39 c-39 -65 -46 -87 -41 -134 10 -91 100 -119 195 -60 l49 30 199 0 199 0 45 -30 c63 -42 129 -42 171 -1 25 25 29 37 29 85 0 43 -5 61 -23 81 -44 51 -135 49 -192 -5 -16 -16 -43 -34 -58 -39 -36 -14 -307 -14 -343 -1 -34 13 -103 85 -120 127 -11 26 -14 150 -14 635 l0 603 25 38 c14 20 30 37 36 37 17 0 49 64 49 101 0 36 -11 56 -75 135 l-30 37 -3 162 c-3 140 -1 165 13 179 15 14 72 16 593 15 317 0 669 -5 782 -10 113 -4 579 -13 1035 -18 457 -5 938 -12 1070 -16 256 -7 758 -13 1146 -14 l237 -1 61 -45 c50 -37 69 -45 104 -45 92 0 147 89 111 179 -20 51 -56 74 -115 75 -42 1 -51 -4 -97 -46 l-50 -47 -479 4 c-263 3 -696 10 -963 15 -267 5 -654 12 -860 15 -206 2 -571 9 -810 14 -239 6 -730 12 -1090 15 l-655 5 -17 21 c-17 20 -18 56 -18 444 0 322 3 426 13 439 6 9 39 34 72 54 l60 38 545 3 c300 1 579 7 620 13 41 5 91 12 110 15 23 3 61 -4 110 -21 41 -15 93 -30 115 -34 23 -4 47 -11 54 -16 69 -42 645 -39 796 5 17 4 57 16 90 25 33 9 73 23 88 31 16 8 33 14 38 14 13 0 119 47 197 87 280 143 537 388 713 677 29 49 63 94 74 100 14 8 153 11 502 8 l482 -3 38 -40 c21 -22 52 -49 69 -59 38 -24 106 -26 124 -5 7 8 17 15 22 15 5 0 27 17 49 38 23 20 47 41 56 45 8 5 78 9 155 10 l140 1 29 -32 c16 -18 29 -42 29 -54 0 -12 19 -44 42 -71 l42 -50 -3 -305 c-2 -319 -2 -319 -51 -382 -42 -56 -55 -110 -40 -164 13 -48 38 -71 99 -93 48 -17 109 1 167 49 l46 38 722 -1 c531 0 730 -3 756 -12 22 -8 48 -30 72 -62 l38 -50 -6 -125 c-3 -69 -9 -273 -12 -453 l-7 -329 -25 -20 c-25 -20 -32 -21 -384 -15 l-359 6 -60 41 c-33 22 -64 40 -68 40 -22 0 -68 -25 -96 -53 -44 -41 -44 -77 -1 -123 27 -28 40 -34 74 -34 25 0 63 10 92 25 l50 25 421 0 c372 1 422 3 436 17 12 11 14 24 9 42 -4 14 -6 33 -5 41 2 8 6 223 9 478 l7 464 28 20 c54 40 73 118 42 177 -16 31 -75 71 -105 71 -27 0 -97 -38 -104 -56 -3 -8 -23 -22 -43 -31 -34 -14 -114 -15 -748 -8 l-710 8 -73 76 c-40 42 -76 88 -80 103 -4 16 -6 152 -4 303 l3 275 54 58 c29 32 56 69 60 83 3 14 16 38 29 53 20 26 30 29 98 34 123 8 162 -2 196 -48 53 -72 77 -85 158 -83 67 1 74 3 106 35 47 45 66 117 48 182 -13 47 -64 110 -99 121 -40 12 -42 41 -39 521 l3 459 45 48 c58 61 73 104 59 164 -16 60 -62 95 -133 101 -84 7 -148 -38 -159 -112 -9 -59 1 -88 49 -141 24 -28 46 -63 49 -80 3 -16 4 -237 3 -490 l-3 -460 -49 -63 c-26 -35 -60 -68 -75 -73 -14 -6 -85 -9 -158 -7 -119 3 -134 5 -163 26 -17 13 -55 28 -85 35 -52 11 -55 10 -123 -25 -68 -36 -69 -37 -203 -38 -74 -1 -146 -1 -161 -1 -20 1 -46 20 -98 72 -39 40 -73 81 -75 93 -3 11 -4 562 -3 1222 l3 1202 43 50 c76 91 80 185 9 260 -29 30 -35 32 -103 32 -72 0 -72 0 -125 -47 l-52 -48 -451 -3 c-248 -2 -465 0 -482 3 -22 4 -49 26 -97 81 l-67 75 0 240 0 240 59 58 c63 63 77 96 66 160 -8 48 -60 103 -114 121 -31 10 -46 10 -77 0 -73 -24 -109 -63 -129 -141 -18 -67 -5 -103 54 -155 l46 -42 3 -213 c4 -261 1 -289 -42 -337 -46 -51 -56 -74 -56 -124 0 -60 30 -104 86 -128 25 -11 52 -20 60 -20 24 0 97 36 122 61 13 12 38 25 55 29 36 7 911 3 942 -5 11 -3 35 -26 53 -51 19 -25 44 -50 56 -55 13 -6 30 -23 39 -39 16 -26 17 -126 17 -1223 l0 -1194 -22 -31 c-78 -105 -103 -135 -123 -142 -12 -5 -224 -10 -470 -11 -512 -3 -484 -8 -451 78 10 26 22 65 26 85 4 21 13 45 20 53 14 16 20 45 40 175 6 41 18 100 26 131 19 74 19 305 0 373 -8 28 -20 83 -26 121 -20 119 -27 146 -74 275 -54 146 -61 161 -130 283 -131 231 -353 466 -575 607 -263 167 -512 247 -883 285 -31 4 -58 12 -60 18 -1 7 -1 328 2 714 l5 702 35 38 c42 45 70 102 70 144 0 34 -34 91 -79 132 l-31 29 0 176 c0 194 7 225 62 266 27 19 41 20 384 17 196 -1 364 -5 373 -9 9 -3 24 -16 34 -28 30 -39 101 -67 149 -59 72 12 106 42 142 122 18 41 18 45 1 88 -26 69 -56 99 -113 114 -65 16 -100 2 -174 -73 l-57 -56 -320 0 c-175 0 -327 3 -335 6 -9 4 -28 30 -41 59 -14 28 -33 59 -43 68 -18 17 -126 30 -172 20z m-566 -3271 c124 -49 244 -181 309 -337 46 -110 60 -213 54 -380 -5 -138 -8 -160 -41 -258 -52 -157 -141 -279 -260 -358 -81 -53 -152 -72 -248 -67 -100 6 -180 44 -266 129 -154 151 -222 328 -222 578 0 231 77 436 215 577 57 58 76 72 155 111 71 35 223 37 304 5z m1398 19 c72 -10 174 -55 222 -99 66 -63 161 -205 176 -265 10 -38 27 -89 46 -135 20 -47 19 -377 -1 -412 -8 -14 -14 -35 -15 -47 0 -52 -83 -211 -150 -291 -92 -109 -215 -172 -341 -172 -69 0 -179 32 -204 60 -10 11 -23 20 -29 20 -17 0 -128 117 -166 175 -46 71 -95 220 -115 355 -16 112 -16 119 4 248 11 73 26 142 32 153 6 12 19 44 28 72 21 59 44 95 121 189 79 96 168 140 315 156 6 1 40 -3 77 -7z m-667 -1636 c25 -24 45 -51 45 -59 0 -8 6 -27 14 -43 30 -61 38 -110 39 -237 0 -121 -2 -139 -28 -207 -86 -230 -245 -196 -299 65 -20 99 -20 205 0 304 21 108 20 106 70 167 39 47 50 55 80 55 28 0 43 -9 79 -45z" fill="#ffffff"/>
<path d="M9755 12529 c-79 -23 -129 -132 -104 -229 10 -40 21 -55 51 -76 35 -25 44 -26 104 -21 60 6 72 11 122 52 l55 46 455 -3 455 -3 54 -60 c30 -33 59 -71 65 -85 6 -16 10 -188 9 -470 0 -245 0 -448 -1 -452 0 -4 -18 -27 -40 -52 -51 -60 -65 -107 -43 -150 28 -56 60 -76 121 -76 49 0 58 4 89 35 34 34 35 38 29 90 -4 36 -16 69 -37 100 l-30 45 1 456 c0 307 4 463 12 478 5 11 25 37 43 56 58 62 57 154 -2 215 -30 30 -40 35 -82 35 -40 0 -59 -7 -117 -46 l-69 -46 -435 7 c-248 3 -446 10 -461 16 -14 5 -33 24 -44 42 -22 40 -60 73 -102 93 -36 16 -54 16 -98 3z" fill="#ffffff"/>
<path d="M3483 11830 c-18 -11 -90 -49 -160 -86 -70 -36 -141 -74 -158 -84 -16 -10 -49 -24 -73 -31 -23 -7 -47 -18 -53 -26 -6 -7 -17 -13 -23 -13 -6 0 -24 -7 -39 -15 -23 -11 -113 -15 -496 -19 -258 -3 -480 -8 -494 -11 -47 -12 -51 -40 -44 -363 4 -164 10 -307 13 -319 4 -13 16 -24 33 -27 14 -3 242 -4 506 -2 641 4 668 5 684 15 11 7 14 46 12 204 -2 166 0 201 15 229 9 18 91 144 181 280 93 140 163 255 161 265 -5 24 -27 25 -65 3z m-987 -438 c6 -4 17 -20 25 -37 23 -48 60 -46 107 6 41 44 56 45 72 3 6 -14 21 -26 37 -30 39 -9 73 -32 73 -48 0 -8 -17 -24 -37 -36 l-37 -21 40 -23 c21 -12 40 -28 42 -37 4 -23 -41 -39 -106 -39 l-58 0 -29 -52 c-17 -28 -35 -53 -40 -55 -24 -8 -47 23 -48 67 -2 43 -3 45 -35 48 -36 4 -72 -20 -72 -46 0 -20 -39 -62 -57 -62 -8 0 -25 24 -38 54 -13 29 -31 56 -39 59 -25 10 -18 35 14 52 37 19 38 37 5 59 -49 32 -22 68 59 76 37 4 53 10 61 25 24 47 36 54 61 37z" fill="#ffffff"/>
<path d="M10824 10766 c-18 -14 -19 -36 -25 -598 -4 -321 -10 -682 -14 -803 -6 -210 -5 -221 14 -245 40 -50 46 -20 48 233 0 135 6 247 12 267 6 19 11 58 11 86 0 33 5 56 15 64 16 13 605 16 1017 4 177 -6 231 -4 243 6 8 7 15 16 15 20 0 4 -30 36 -67 71 -36 35 -124 123 -194 194 -144 146 -148 155 -96 222 17 23 68 90 112 148 44 59 110 146 147 193 37 48 68 92 68 98 0 33 -27 35 -642 44 -337 5 -620 10 -629 10 -8 0 -24 -6 -35 -14z" fill="#ffffff"/>
<path d="M11596 9561 c-7 -11 15 -95 44 -171 40 -102 81 -225 87 -255 3 -18 -4 -57 -16 -93 -70 -207 47 -424 284 -527 62 -27 167 -44 315 -51 121 -6 141 -4 197 15 34 11 77 30 95 41 18 11 40 23 48 26 8 4 47 31 87 61 135 102 176 205 142 352 -24 107 -107 220 -209 288 -59 39 -191 93 -227 93 -16 0 -34 5 -40 11 -13 13 -185 8 -326 -10 -69 -8 -108 -9 -135 -1 -32 9 -218 137 -232 160 -10 17 -83 70 -96 70 -7 0 -15 -4 -18 -9z m699 -438 c1 -64 17 -85 63 -81 31 3 36 8 56 56 15 38 28 54 45 59 34 9 53 -19 39 -58 -15 -42 10 -67 71 -71 39 -3 46 -6 49 -26 6 -40 -14 -52 -85 -52 -50 0 -65 -4 -70 -16 -10 -26 11 -48 51 -55 45 -7 59 -20 54 -50 -3 -22 -9 -24 -63 -27 -65 -3 -85 -14 -85 -45 0 -29 -39 -87 -59 -87 -9 0 -22 5 -29 12 -15 15 -16 60 -1 75 20 20 0 52 -36 59 -45 8 -63 1 -77 -33 -27 -63 -80 -95 -95 -56 -3 9 -7 34 -7 55 -1 38 -3 41 -50 59 -27 10 -53 24 -57 31 -20 33 51 79 90 58 24 -12 41 -6 41 16 0 9 -11 14 -35 14 -38 0 -85 25 -85 45 0 29 41 50 102 50 51 0 63 4 79 24 10 13 19 34 19 47 0 25 36 56 60 52 11 -3 15 -17 15 -55z" fill="#ffffff"/>
<path d="M12272 8958 c-30 -30 5 -62 57 -52 38 8 46 29 18 49 -26 18 -59 19 -75 3z" fill="#ffffff"/>
<path d="M4144 8850 c-3 -3 -114 -5 -247 -5 -283 0 -291 -2 -301 -72 -3 -25 -6 -128 -6 -228 0 -104 -5 -197 -11 -216 -14 -44 -42 -99 -50 -99 -3 0 -19 -19 -35 -42 -15 -24 -48 -65 -72 -91 -56 -61 -53 -80 14 -88 28 -4 60 -11 72 -18 11 -6 39 -11 61 -11 22 0 52 -5 68 -11 87 -34 154 -39 493 -34 184 3 378 5 431 5 65 0 101 4 114 14 18 13 19 34 18 441 -1 345 -4 429 -15 436 -7 5 -96 9 -198 9 -102 1 -218 5 -258 9 -40 4 -75 4 -78 1z m-194 -375 c66 -34 77 -90 29 -148 -25 -31 -37 -37 -67 -37 -102 1 -141 145 -50 185 42 18 53 18 88 0z m267 -6 c43 -27 57 -60 44 -105 -31 -112 -191 -91 -191 25 0 36 5 44 42 71 49 36 60 37 105 9z m287 -10 c59 -70 17 -169 -72 -169 -35 0 -49 6 -73 29 -65 65 -18 171 76 171 36 0 48 -5 69 -31z" fill="#ffffff"/>
<path d="M2150 8048 c-19 -7 -20 -20 -21 -355 0 -357 -4 -518 -14 -587 -9 -59 -17 -695 -10 -707 5 -7 11 -6 20 1 9 8 15 8 20 0 20 -33 25 29 26 338 1 185 4 346 7 357 4 11 15 31 24 44 16 23 20 23 210 27 106 1 338 3 516 3 384 1 370 -7 238 129 -147 152 -246 274 -246 304 0 15 5 30 11 33 5 4 14 17 20 28 5 12 31 56 59 97 27 41 59 93 71 115 12 22 37 60 55 84 34 44 45 90 22 92 -50 6 -993 2 -1008 -3z" fill="#ffffff"/>
<path d="M9435 6964 c-85 -7 -181 -27 -215 -46 -63 -34 -74 -42 -147 -106 -81 -71 -123 -144 -144 -250 -24 -123 31 -262 150 -383 84 -85 123 -108 225 -133 95 -23 295 -24 356 0 59 22 236 22 299 0 55 -20 100 -20 107 -1 4 8 -3 32 -13 52 -96 185 -100 204 -68 301 40 121 -21 321 -129 419 -27 24 -84 60 -125 80 -70 32 -216 75 -244 71 -7 -1 -30 -3 -52 -4z m75 -223 c45 -32 33 -131 -16 -131 -26 0 -36 -37 -19 -69 8 -17 15 -45 15 -64 0 -40 17 -95 36 -118 22 -25 17 -58 -11 -71 -34 -15 -105 13 -145 58 -27 31 -30 41 -30 104 0 67 1 69 38 100 l37 31 -25 20 c-14 10 -31 24 -37 29 -22 18 -15 65 12 90 53 50 95 56 145 21z" fill="#ffffff"/>
<path d="M10128 5890 l-23 -18 -8 -479 c-4 -263 -9 -716 -10 -1008 -2 -465 0 -530 13 -530 8 0 21 18 30 40 12 34 14 118 12 523 l-3 482 25 25 25 25 579 0 c490 0 581 2 598 15 22 16 22 16 -93 90 -34 22 -152 101 -263 175 -249 166 -245 156 -95 272 55 43 114 89 130 103 104 87 184 149 288 226 29 22 35 43 15 55 -7 4 -251 9 -543 11 -291 1 -558 5 -592 7 -50 4 -66 2 -85 -14z" fill="#ffffff"/>
<path d="M7194 4949 c-4 -7 -4 -118 0 -248 9 -299 0 -347 -98 -480 -122 -166 -158 -243 -120 -258 9 -3 69 0 134 7 151 15 291 18 887 19 403 0 483 3 495 15 24 23 38 260 38 618 0 288 -2 327 -16 332 -9 3 -308 6 -664 6 -471 0 -651 -3 -656 -11z m474 -147 c3 -27 -8 -43 -87 -126 -125 -131 -126 -125 34 -301 42 -46 58 -80 50 -105 -15 -48 -56 -28 -125 59 -23 28 -70 82 -106 120 -35 38 -64 78 -64 89 0 27 71 121 158 210 97 98 134 113 140 54z m370 -6 c3 -22 -21 -80 -86 -210 -49 -100 -99 -202 -111 -228 -12 -26 -26 -50 -32 -53 -5 -4 -9 -14 -9 -23 -1 -26 -35 -62 -59 -62 -13 0 -26 10 -33 25 -10 22 -6 37 31 113 23 48 46 94 51 102 5 8 46 89 91 180 45 91 87 171 92 178 6 7 22 12 36 10 20 -2 27 -9 29 -32z m130 0 c31 -17 85 -71 171 -175 68 -83 75 -112 37 -151 -195 -200 -254 -252 -287 -253 -30 -2 -34 1 -37 25 -3 24 14 45 117 147 73 73 121 128 121 139 0 23 -73 115 -137 174 -30 29 -43 48 -43 68 0 43 13 49 58 26z" fill="#ffffff"/>
<path d="M5656 4174 c-14 -14 -16 -82 -18 -587 -1 -315 -1 -583 -1 -597 1 -14 -3 -80 -9 -148 -10 -113 -9 -124 7 -142 35 -39 42 -26 48 102 4 66 7 181 7 253 0 126 9 186 34 212 8 9 144 13 566 14 305 1 560 0 565 -1 30 -7 45 1 45 25 0 19 -15 37 -62 73 -34 26 -69 54 -78 62 -41 40 -233 210 -278 248 -36 30 -52 50 -52 67 0 28 74 105 179 185 40 30 86 67 104 81 18 15 61 44 97 65 81 47 94 63 73 87 -15 16 -57 17 -614 17 -530 0 -599 -2 -613 -16z" fill="#ffffff"/>
</g>
</svg>