<?xml version="1.0" standalone="no"?>
<!DOCTYPE svg PUBLIC "-//W3C//DTD SVG 20010904//EN"
 "http://www.w3.org/TR/2001/REC-SVG-20010904/DTD/svg10.dtd">
<svg version="1.0" xmlns="http://www.w3.org/2000/svg"
 width="1353.000000pt" height="1194.000000pt" viewBox="0 0 1353.000000 1194.000000"
 preserveAspectRatio="xMidYMid meet">

<g transform="translate(0.000000,1194.000000) scale(0.100000,-0.100000)"
fill="#000000" stroke="none">
<path d="M7585 10711 c-53 -13 -163 -71 -183 -96 -11 -14 -25 -25 -30 -25 -6
0 -25 -20 -42 -45 -17 -25 -42 -57 -55 -71 -14 -15 -25 -31 -25 -36 0 -9 -61
-100 -88 -130 -8 -10 -11 -18 -7 -18 5 0 -2 -11 -14 -24 -45 -48 -34 -141 23
-195 14 -14 26 -30 26 -38 0 -7 19 -25 41 -40 146 -98 154 -102 200 -102 50
-1 121 25 155 57 35 33 94 108 94 121 0 6 4 11 9 11 13 0 61 114 61 144 0 16
-5 26 -15 26 -8 0 -15 -8 -15 -18 0 -35 -69 -158 -120 -214 -53 -60 -120 -98
-170 -98 -19 0 -52 20 -109 67 -44 37 -81 73 -81 79 0 7 -16 31 -35 54 -34 41
-45 83 -25 95 5 3 18 26 29 50 11 25 24 45 29 45 5 0 14 12 21 26 13 29 60 91
108 144 18 19 33 38 33 43 0 4 4 7 10 7 5 0 30 15 54 34 60 45 202 91 259 83
55 -8 159 -69 222 -132 75 -75 158 -181 178 -228 10 -23 24 -49 31 -57 8 -8
17 -26 21 -40 4 -14 15 -35 25 -47 14 -18 17 -51 20 -210 2 -103 3 -201 2
-218 -1 -16 -4 -162 -7 -323 -3 -170 -9 -301 -15 -312 -5 -10 -10 -55 -10 -99
0 -44 -5 -113 -10 -153 -6 -40 -14 -131 -19 -203 -6 -71 -14 -150 -20 -175 -6
-25 -10 -67 -11 -95 0 -54 -21 -183 -44 -273 -8 -31 -17 -84 -21 -117 -10
-107 -104 -425 -135 -460 -10 -11 -23 -37 -30 -57 -6 -21 -15 -38 -19 -38 -4
0 -15 -25 -25 -56 -10 -32 -33 -72 -54 -96 -52 -57 -115 -120 -143 -141 -44
-33 -126 -68 -160 -69 -35 -1 -69 -22 -69 -43 0 -7 8 -21 18 -33 20 -23 24
-23 507 -38 307 -9 785 -85 930 -149 17 -7 57 -20 90 -29 33 -9 83 -27 110
-40 81 -38 118 -55 146 -65 50 -18 170 -101 234 -163 36 -34 65 -65 65 -69 0
-4 16 -31 35 -61 20 -29 38 -63 40 -75 3 -13 7 -34 10 -48 3 -14 12 -25 21
-25 25 0 8 85 -29 148 -18 30 -37 63 -44 75 -37 66 -264 241 -385 297 -24 11
-56 28 -73 38 -32 19 -255 93 -340 113 -27 6 -57 15 -66 19 -9 5 -42 11 -75
15 -32 4 -79 14 -104 22 -80 28 -375 69 -622 87 l-158 11 33 25 c31 24 52 45
129 126 20 21 40 51 43 67 4 15 15 33 24 40 15 11 61 95 61 112 0 4 10 24 23
44 25 40 63 136 78 195 5 21 16 48 24 60 8 11 15 29 15 40 0 11 4 33 9 50 26
82 40 146 46 201 3 33 13 75 22 94 8 18 17 52 20 75 8 76 12 101 13 101 1 0 3
46 5 103 2 57 8 108 13 115 9 11 15 61 28 217 11 145 30 569 26 600 -2 14 -5
133 -7 265 -2 132 -6 263 -9 290 -3 28 -5 105 -6 172 l-2 121 -51 77 c-29 42
-68 103 -87 135 -79 129 -208 265 -294 308 -35 18 -71 32 -80 32 -8 0 -18 5
-21 10 -7 11 -164 12 -210 1z"/>
<path d="M1460 8958 c-23 -29 -47 -61 -55 -70 -8 -9 -21 -30 -29 -47 -9 -16
-21 -35 -28 -43 -7 -7 -25 -31 -39 -53 -99 -154 -127 -199 -154 -244 -16 -29
-39 -62 -49 -74 -22 -26 -150 -290 -160 -329 -3 -15 -13 -33 -21 -42 -27 -27
-101 -279 -111 -376 -2 -19 -5 -79 -8 -133 -4 -92 -2 -105 31 -203 30 -88 43
-113 86 -160 50 -55 197 -160 233 -167 11 -2 26 -7 34 -10 94 -36 212 -66 275
-70 22 -1 45 -5 50 -8 6 -3 51 -4 100 -2 50 1 119 2 155 2 36 -1 70 -1 75 0 6
0 42 3 80 5 78 6 145 13 190 20 17 3 54 8 83 11 29 3 65 11 80 17 15 6 36 13
47 15 10 2 28 9 40 17 11 7 45 21 75 31 30 9 64 23 76 30 22 14 353 123 439
145 28 7 68 14 90 17 22 2 47 6 55 9 54 20 281 24 304 5 7 -6 16 -8 19 -4 4 3
7 1 7 -5 0 -7 6 -12 14 -12 7 0 19 -7 26 -15 7 -8 16 -12 21 -9 5 3 9 -2 9
-10 0 -9 4 -16 9 -16 8 0 20 -33 27 -75 12 -79 12 -95 3 -95 -6 0 -8 -9 -4
-19 6 -21 -12 -110 -26 -125 -5 -6 -9 -19 -9 -29 0 -32 -31 -116 -83 -227 -44
-93 -53 -117 -56 -142 -1 -4 -7 -13 -14 -20 -7 -7 -41 -67 -76 -133 -34 -66
-66 -122 -69 -125 -4 -3 -37 -50 -73 -105 -73 -110 -141 -212 -254 -380 -105
-155 -118 -174 -132 -190 -7 -7 -40 -48 -75 -92 -34 -43 -64 -80 -67 -83 -20
-16 -91 -110 -91 -118 0 -6 -6 -15 -13 -19 -6 -4 -30 -35 -51 -68 -45 -68
-128 -174 -181 -232 -19 -21 -38 -46 -41 -55 -3 -10 -9 -18 -14 -18 -5 0 -11
-8 -14 -18 -4 -10 -14 -27 -24 -38 -38 -42 -82 -102 -82 -113 0 -38 75 36 150
150 16 24 87 110 135 163 6 6 23 29 40 51 16 22 44 55 62 74 18 18 33 36 33
41 0 4 10 18 23 32 20 22 68 77 127 148 12 14 31 36 43 50 12 14 30 38 40 53
19 29 28 40 81 99 17 19 38 45 46 57 20 31 99 131 127 161 13 13 65 87 117
164 52 78 103 150 114 161 10 11 31 43 47 70 16 28 32 52 35 55 4 3 30 50 58
105 28 55 67 124 86 153 19 30 40 67 46 83 7 16 16 29 20 29 4 0 13 18 20 40
7 22 17 40 22 40 5 0 6 5 3 10 -3 6 -2 10 2 10 5 0 15 21 22 48 8 26 17 52 20
57 3 6 7 21 9 35 2 13 12 45 22 70 26 62 43 164 35 214 -9 58 -47 176 -57 176
-4 0 -8 4 -8 10 0 17 -41 58 -71 70 -16 7 -29 16 -29 20 0 11 -78 32 -160 42
-94 12 -220 11 -255 -2 -14 -5 -42 -10 -62 -10 -20 0 -61 -7 -92 -16 -115 -32
-467 -147 -486 -159 -11 -6 -45 -20 -75 -30 -30 -9 -71 -27 -90 -40 -60 -38
-141 -56 -350 -75 -58 -6 -132 -13 -165 -16 -135 -13 -378 -4 -416 16 -10 6
-31 10 -48 10 -16 0 -32 4 -35 9 -5 8 -51 20 -102 27 -41 5 -149 91 -215 171
-9 11 -29 57 -43 101 -27 80 -36 183 -22 257 14 80 28 162 31 185 2 14 11 54
20 90 8 36 18 73 20 83 2 9 13 34 23 55 11 20 32 66 47 102 48 114 76 174 102
215 14 22 40 65 59 95 19 30 34 62 34 71 0 15 22 51 116 193 21 32 47 70 56
85 23 34 45 64 91 123 20 26 37 52 37 58 0 25 -33 5 -70 -42z"/>
<path d="M5471 8030 c-23 -25 -41 -48 -41 -51 0 -3 -16 -23 -35 -45 -19 -21
-38 -48 -41 -59 -4 -11 -11 -23 -16 -26 -12 -8 -94 -160 -112 -209 -3 -8 -10
-22 -16 -30 -5 -8 -15 -28 -20 -44 l-10 -28 -35 43 c-19 24 -35 49 -35 55 0 7
-7 14 -15 18 -8 3 -15 13 -16 23 -1 33 -126 136 -266 218 -35 20 -63 41 -63
46 0 5 -7 9 -16 9 -8 0 -22 7 -30 15 -24 23 -37 18 -30 -12 8 -29 55 -102 81
-123 9 -7 26 -32 37 -54 23 -46 110 -133 154 -156 16 -8 53 -31 83 -52 30 -21
59 -38 64 -38 12 0 52 -43 52 -55 -1 -9 -16 -83 -20 -95 -1 -3 -5 -12 -8 -20
-9 -21 -34 -159 -35 -195 -4 -89 36 -322 59 -351 5 -6 13 -31 18 -55 12 -58
35 -119 61 -160 11 -19 32 -58 46 -86 14 -29 29 -53 34 -53 5 0 25 -27 45 -60
20 -33 41 -60 46 -60 17 0 9 37 -16 74 -14 20 -25 45 -25 54 0 10 -4 22 -8 27
-9 10 -20 37 -64 150 -23 59 -47 221 -48 320 0 104 5 158 34 370 15 103 20
133 45 245 5 25 24 73 40 108 17 34 31 71 31 82 0 24 91 203 125 245 16 21 21
35 15 45 -7 11 -17 5 -49 -30z"/>
<path d="M3825 8040 c-3 -5 -3 -15 0 -20 4 -6 9 -27 11 -48 3 -20 6 -44 8 -52
2 -8 6 -33 10 -55 4 -22 14 -62 23 -88 8 -27 13 -51 10 -53 -3 -3 1 -21 9 -40
8 -19 12 -39 9 -43 -7 -12 15 -71 26 -71 5 0 9 -6 9 -13 0 -7 10 -30 21 -52
19 -34 24 -56 28 -108 1 -5 6 -5 11 -2 6 3 13 -2 17 -11 3 -10 14 -25 23 -34
10 -10 26 -36 36 -59 10 -22 21 -41 26 -41 4 0 8 -5 8 -11 0 -5 12 -35 26 -65
26 -54 52 -65 39 -15 -4 14 -8 35 -10 46 -2 11 -8 44 -14 74 -6 30 -9 56 -7
59 3 2 -2 23 -10 45 -15 41 -17 53 -29 130 -7 51 12 80 102 157 53 45 65 49
106 33 20 -8 37 -19 37 -24 0 -5 6 -9 13 -9 8 0 20 -12 28 -27 7 -16 23 -44
35 -63 11 -19 31 -65 43 -102 14 -42 28 -68 37 -68 8 0 14 -6 14 -13 0 -7 9
-28 19 -48 11 -19 25 -54 32 -77 7 -23 15 -42 19 -42 5 0 11 -12 15 -27 3 -16
17 -51 30 -78 13 -28 27 -63 30 -78 6 -23 12 -28 34 -25 22 2 26 8 26 33 0 17
-5 48 -12 69 -7 22 -11 41 -9 44 3 2 0 15 -5 29 -5 14 -12 43 -14 64 -3 21 -9
49 -14 62 -6 14 -8 27 -5 30 2 2 0 17 -6 32 -6 15 -12 43 -15 63 -2 20 -9 38
-14 41 -4 3 -12 25 -16 49 -4 23 -11 42 -16 42 -6 0 -7 4 -4 10 8 13 -20 58
-75 118 -11 12 -20 25 -20 30 -1 11 -76 62 -94 62 -8 0 -17 4 -21 9 -3 5 -31
9 -63 8 -65 -3 -142 -36 -169 -75 -10 -13 -25 -32 -34 -41 -9 -9 -23 -29 -32
-46 l-15 -30 -19 40 c-10 22 -20 42 -23 45 -3 3 -16 27 -29 54 -13 27 -31 56
-41 66 -9 9 -23 31 -31 48 -8 18 -17 32 -20 32 -4 0 -12 20 -19 45 -7 25 -16
45 -20 45 -4 0 -11 11 -14 25 -7 26 -20 32 -31 15z"/>
<path d="M9590 7961 c-127 -9 -280 -42 -280 -60 0 -11 11 -12 58 -5 120 17
377 8 437 -15 85 -34 125 -58 161 -94 75 -77 84 -178 33 -375 -17 -64 -34
-123 -39 -132 -7 -13 -20 -15 -87 -9 -240 22 -299 25 -414 19 -121 -6 -129 -8
-178 -39 -41 -27 -53 -41 -62 -74 -26 -97 17 -155 165 -226 47 -23 89 -41 94
-41 4 0 27 -9 51 -21 53 -25 170 -66 237 -83 68 -17 74 -22 74 -59 0 -47 52
-149 94 -183 27 -23 56 -34 124 -47 108 -21 112 -21 112 -3 0 10 -20 18 -57
26 -32 6 -70 16 -85 22 -36 13 -95 91 -109 142 -20 75 12 216 77 341 26 50 54
104 62 120 9 17 23 37 33 45 9 9 25 43 34 75 9 33 25 92 37 130 21 73 26 248
9 269 -5 6 -15 31 -22 55 -20 67 -80 124 -184 175 -83 40 -99 44 -185 49 -52
2 -138 1 -190 -2z m340 -750 c0 -6 -4 -13 -10 -16 -5 -3 -10 -14 -10 -24 0
-10 -9 -44 -20 -77 -29 -81 -50 -181 -50 -230 0 -38 -2 -41 -24 -37 -14 3 -33
13 -43 23 -11 10 -39 27 -64 39 -24 11 -73 39 -109 62 -36 23 -75 45 -87 50
-13 5 -23 13 -23 18 0 5 -8 12 -17 15 -22 7 -107 85 -101 92 7 6 131 43 188
55 25 6 86 14 135 19 50 6 99 12 110 14 43 7 125 6 125 -3z"/>
<path d="M6486 7523 c-4 -9 -9 -296 -12 -637 -3 -342 -7 -626 -9 -633 -2 -7
-18 -9 -43 -6 -42 6 -271 -11 -387 -28 -261 -38 -533 -110 -755 -200 -183 -74
-447 -213 -561 -296 -26 -18 -52 -33 -58 -33 -6 0 -11 -6 -11 -14 0 -7 -16
-40 -35 -71 -27 -46 -32 -61 -23 -72 9 -11 8 -25 -5 -61 -31 -88 -76 -279
-112 -477 -10 -49 -23 -108 -30 -130 -7 -23 -18 -68 -24 -100 -18 -100 -61
-549 -61 -634 0 -44 -4 -83 -10 -86 -32 -20 19 -782 67 -1000 38 -175 69 -293
90 -350 11 -27 25 -72 31 -100 7 -27 23 -75 36 -105 13 -30 31 -72 40 -93 9
-21 16 -47 16 -58 0 -18 105 -238 119 -249 3 -3 17 -27 30 -55 14 -27 29 -54
33 -60 5 -5 24 -32 41 -60 50 -77 105 -154 158 -222 27 -35 49 -65 49 -68 0
-3 10 -16 23 -29 12 -13 63 -69 112 -126 96 -110 135 -150 185 -190 17 -14 44
-36 60 -50 33 -29 59 -48 91 -70 12 -8 30 -22 39 -31 9 -9 37 -30 61 -46 24
-17 60 -45 79 -62 19 -17 40 -31 45 -31 6 0 48 -27 95 -61 81 -58 426 -239
456 -239 8 0 47 -16 87 -36 l72 -37 75 18 c41 10 86 23 100 30 14 7 59 20 100
29 41 9 92 23 113 31 40 16 98 38 162 62 49 18 261 124 330 164 28 16 62 34
78 40 15 6 27 14 27 18 0 4 16 15 36 24 19 10 40 22 47 27 28 24 56 46 77 60
12 8 30 22 40 30 10 8 28 22 40 30 12 8 30 22 40 30 10 8 49 40 86 70 139 111
393 401 451 514 13 27 29 54 34 60 40 47 49 60 49 67 0 4 7 15 16 23 19 20
132 255 138 289 2 13 16 47 30 75 28 56 47 105 77 202 11 36 27 85 35 110 46
136 111 486 128 690 43 512 18 1172 -59 1515 -13 61 -31 151 -39 200 -43 263
-98 475 -122 475 -7 0 -20 10 -29 22 -8 13 -37 39 -64 58 -27 19 -87 63 -134
97 -254 184 -593 345 -952 453 -55 16 -199 49 -285 64 -167 30 -227 37 -390
49 l-165 12 -3 370 c-2 367 -2 370 19 388 27 22 128 23 214 2 80 -19 193 -19
241 0 84 34 181 101 277 194 64 62 73 87 30 77 -60 -14 -191 -18 -245 -7 -82
15 -152 52 -233 121 -94 81 -158 111 -245 118 -39 2 -70 9 -70 13 0 16 -28 9
-34 -8z m1494 -1997 c143 -27 313 -96 430 -175 25 -17 57 -31 72 -31 30 0 68
34 68 62 0 10 4 18 9 18 4 0 18 -48 30 -107 12 -60 31 -146 41 -193 10 -47 21
-110 25 -140 4 -30 13 -84 21 -120 8 -36 17 -103 19 -150 3 -47 11 -150 19
-230 24 -228 39 -589 27 -641 -6 -24 -11 -76 -11 -115 0 -177 -59 -688 -80
-704 -4 -3 -17 -48 -29 -100 -33 -141 -48 -200 -65 -250 -8 -25 -22 -70 -31
-100 -35 -120 -98 -262 -198 -450 -23 -41 -47 -81 -54 -88 -7 -7 -13 -17 -13
-21 0 -7 -9 -19 -49 -67 -5 -6 -16 -26 -26 -44 -69 -133 -370 -442 -545 -560
-12 -8 -30 -22 -40 -30 -10 -8 -28 -22 -40 -30 -12 -8 -30 -22 -40 -30 -10 -8
-28 -22 -40 -30 -12 -8 -28 -20 -34 -26 -7 -6 -28 -19 -46 -29 -19 -10 -37
-21 -40 -24 -9 -11 -105 -61 -185 -96 -22 -10 -69 -31 -105 -48 -35 -16 -76
-33 -90 -38 -26 -8 -68 -24 -160 -59 -30 -12 -95 -33 -144 -46 -49 -14 -96
-30 -105 -35 -49 -27 -85 -26 -151 4 -168 78 -393 195 -468 244 -45 29 -97 59
-115 67 -18 7 -39 20 -47 28 -8 7 -37 29 -65 48 -27 18 -57 39 -65 47 -22 20
-55 46 -80 63 -12 8 -35 26 -51 40 -15 14 -42 36 -59 50 -125 101 -363 369
-480 540 -19 29 -45 64 -57 78 -35 42 -37 44 -62 97 -14 28 -28 52 -32 55 -7
5 -124 244 -172 355 -15 33 -32 83 -39 110 -6 28 -20 73 -31 100 -10 28 -30
95 -43 150 -14 55 -36 138 -50 185 -50 169 -98 622 -96 905 2 228 38 638 72
825 11 58 22 130 25 160 3 30 15 106 27 168 l22 113 43 19 c23 10 62 32 85 48
43 29 178 97 292 146 32 14 74 26 92 26 64 0 93 -60 58 -120 -40 -66 17 -110
141 -110 90 0 203 20 425 75 133 32 159 37 232 42 75 6 77 5 107 -25 17 -17
31 -37 31 -44 0 -22 -49 -63 -120 -100 -77 -39 -153 -108 -145 -130 10 -25
127 -58 203 -58 106 0 370 36 567 77 152 31 184 41 210 64 30 27 30 28 13 57
-47 80 -4 105 179 104 102 0 134 -4 188 -23 84 -29 101 -19 67 44 -27 52 -28
83 -3 97 47 25 86 11 342 -118 331 -167 387 -184 468 -142 54 27 67 68 42 124
-22 50 -45 72 -136 128 -111 68 -143 97 -130 118 9 14 85 12 175 -4z m-3285
-22 c0 -11 -23 -46 -52 -77 l-51 -57 10 36 c5 19 18 56 29 80 15 37 23 45 41
42 16 -2 23 -10 23 -24z"/>
<path d="M7835 4459 c-38 -5 -107 -13 -152 -19 -73 -8 -154 -37 -173 -62 -3
-3 -24 -14 -48 -23 -23 -10 -42 -20 -42 -25 0 -4 -8 -11 -19 -16 -18 -9 -137
-143 -179 -201 -26 -36 -58 -116 -66 -163 -3 -19 -10 -55 -16 -80 -6 -25 -15
-79 -19 -120 -10 -86 -1 -106 66 -153 21 -15 65 -58 98 -97 102 -120 241 -175
435 -171 154 3 232 22 383 97 75 37 137 71 137 76 0 4 6 8 14 8 23 0 131 94
223 195 7 7 24 35 38 61 14 26 31 55 38 64 56 68 71 199 38 327 -26 100 -76
168 -152 205 -140 68 -196 80 -484 102 -27 2 -81 0 -120 -5z"/>
<path d="M5115 4440 c-33 -5 -108 -13 -167 -19 -97 -10 -155 -24 -204 -49 -11
-5 -37 -18 -58 -28 -81 -39 -130 -104 -157 -207 -33 -128 -18 -259 38 -327 7
-9 24 -38 38 -64 14 -26 31 -54 38 -61 92 -101 200 -195 223 -195 8 0 14 -4
14 -8 0 -13 265 -141 315 -152 25 -6 88 -15 139 -20 l94 -10 73 36 c41 20 79
37 84 39 11 2 20 6 110 42 73 30 157 74 167 88 4 5 8 6 8 2 0 -11 79 69 113
115 24 31 25 37 16 108 -4 41 -13 95 -19 120 -6 25 -13 61 -16 80 -8 47 -40
127 -66 163 -36 50 -160 192 -177 201 -9 5 -18 13 -21 17 -8 11 -167 79 -225
95 -27 8 -87 19 -132 24 -46 5 -102 11 -125 13 -24 3 -70 1 -103 -3z"/>
<path d="M6451 2564 c-253 -68 -410 -331 -346 -579 67 -256 329 -415 580 -350
256 67 415 329 350 578 -67 259 -333 419 -584 351z"/>
<path d="M10790 7373 c0 -9 7 -24 15 -33 21 -23 34 -149 24 -225 -9 -72 -34
-168 -53 -204 -18 -33 -43 -99 -51 -131 -8 -33 -38 -94 -47 -98 -5 -2 -8 -11
-8 -21 0 -32 -89 -232 -111 -251 -12 -10 -69 -123 -69 -136 0 -24 25 -15 42
14 9 15 46 56 83 92 36 36 78 85 93 110 14 25 32 51 39 58 7 7 13 17 13 21 0
5 10 19 23 32 68 71 109 155 131 264 l11 60 60 -3 c33 -2 70 -10 82 -18 12 -8
30 -14 39 -14 33 0 85 -42 106 -86 17 -37 19 -55 13 -112 -9 -94 -52 -257 -85
-321 -4 -9 -20 -42 -35 -74 -15 -31 -31 -60 -36 -62 -4 -3 -10 -18 -14 -34 -3
-16 -12 -35 -20 -41 -7 -6 -16 -23 -20 -37 -3 -15 -15 -39 -26 -54 -22 -31
-25 -59 -6 -59 7 0 18 9 25 20 23 38 125 160 132 160 5 0 26 28 49 63 22 34
54 80 70 102 17 22 34 47 37 55 4 8 15 26 24 40 28 42 49 123 56 214 5 62 4
86 -5 86 -6 0 -11 11 -11 25 0 29 -60 112 -98 137 -77 49 -84 51 -209 52 -134
1 -128 -2 -124 61 1 29 -25 182 -43 242 -8 29 -26 65 -40 80 -14 15 -26 31
-26 35 0 5 -7 8 -15 8 -8 0 -15 -8 -15 -17z"/>
<path d="M12544 7148 c-16 -13 -30 -26 -32 -30 -2 -5 -10 -8 -17 -8 -19 0 -74
-81 -97 -142 -10 -27 -27 -58 -37 -69 -10 -11 -31 -52 -46 -92 -16 -39 -36
-80 -45 -90 -10 -10 -36 -67 -60 -127 -24 -60 -46 -111 -49 -112 -4 -2 -22
-42 -40 -90 -31 -80 -51 -110 -51 -74 0 7 -7 19 -15 26 -9 7 -13 15 -10 18 2
3 -18 28 -46 56 -29 28 -58 61 -66 73 -36 54 -247 128 -268 94 -3 -6 -14 -11
-24 -11 -21 0 -71 -22 -71 -32 0 -5 -5 -8 -11 -8 -6 0 -17 -7 -25 -15 -8 -8
-23 -20 -33 -27 -10 -7 -32 -40 -50 -72 -17 -32 -37 -64 -45 -70 -29 -23 -99
-256 -90 -299 3 -12 9 -58 13 -102 5 -44 17 -109 26 -145 19 -72 99 -220 120
-220 7 0 18 -7 25 -15 7 -9 18 -14 24 -12 6 3 26 -2 43 -9 18 -7 43 -11 55 -9
23 5 103 39 128 55 8 6 26 16 40 22 14 7 38 25 55 40 16 15 31 26 32 24 2 -1
-8 -30 -22 -64 -14 -34 -25 -73 -25 -86 0 -29 -28 -143 -41 -168 -5 -9 -12
-57 -15 -105 -3 -48 -7 -110 -8 -138 -5 -67 25 -122 71 -131 63 -12 203 60
174 89 -8 8 -20 4 -42 -12 -17 -13 -36 -24 -42 -25 -7 -1 -17 -5 -23 -8 -6 -4
-24 -10 -41 -13 -27 -4 -31 -2 -36 23 -14 72 7 248 39 326 13 33 24 66 24 75
0 19 91 254 101 261 11 8 49 112 49 137 0 12 6 28 13 35 8 7 28 51 46 98 18
46 41 91 50 100 9 8 32 56 51 105 18 50 40 98 48 107 8 9 11 22 7 27 -3 6 -2
11 3 11 5 0 12 18 16 40 3 21 16 49 29 60 12 12 22 24 23 28 0 4 6 20 12 35 7
16 12 35 12 42 0 18 39 118 49 125 11 9 31 60 31 82 0 12 11 40 25 64 14 23
31 68 40 99 8 32 26 72 40 91 14 18 25 36 25 40 0 4 10 15 21 25 21 18 22 18
45 -8 12 -14 27 -35 32 -47 27 -58 36 -82 37 -91 0 -5 4 -16 8 -22 5 -7 10
-27 11 -45 2 -18 9 -46 15 -61 15 -37 14 -72 -1 -89 -7 -7 -22 -30 -32 -51
-11 -20 -22 -37 -26 -37 -20 0 -59 68 -67 119 -5 32 -31 81 -43 81 -17 0 -18
-16 -3 -65 26 -86 64 -155 94 -170 36 -19 34 -19 61 8 84 82 101 187 60 372
-8 38 -21 76 -29 83 -7 7 -13 20 -13 27 0 8 -11 26 -25 41 -14 15 -25 31 -25
36 0 11 -62 38 -88 38 -11 0 -32 -10 -48 -22z m-767 -662 c43 -4 120 -56 177
-116 26 -28 50 -50 55 -50 13 0 52 -51 52 -68 0 -37 -12 -86 -21 -92 -11 -7
-60 -131 -70 -180 -4 -19 -15 -55 -23 -80 -9 -25 -21 -65 -28 -90 -13 -47 -82
-126 -100 -115 -5 4 -9 2 -9 -3 0 -4 -16 -14 -35 -22 -19 -8 -35 -17 -35 -21
0 -9 -36 -20 -80 -25 -19 -2 -44 -6 -55 -8 -14 -4 -33 6 -58 29 -58 53 -67 92
-72 286 -2 107 1 141 22 225 14 55 31 106 38 114 7 8 21 39 31 68 27 76 118
166 159 156 11 -2 34 -6 52 -8z"/>
</g>
</svg>
