<?xml version="1.0" standalone="no"?>
<!DOCTYPE svg PUBLIC "-//W3C//DTD SVG 20010904//EN"
 "http://www.w3.org/TR/2001/REC-SVG-20010904/DTD/svg10.dtd">
<svg version="1.0" xmlns="http://www.w3.org/2000/svg"
 width="745.000000pt" height="745.000000pt" viewBox="0 0 745.000000 745.000000"
 preserveAspectRatio="xMidYMid meet">

<g transform="translate(0.000000,745.000000) scale(0.100000,-0.100000)"
fill="#000000" stroke="none">
<path d="M3596 7193 c-4 -9 -9 -296 -12 -637 -3 -342 -7 -626 -9 -632 -2 -8
-20 -10 -49 -7 -129 15 -570 -48 -796 -114 -110 -31 -286 -92 -344 -117 -32
-14 -63 -26 -68 -26 -33 0 -420 -212 -503 -276 -18 -13 -37 -24 -43 -24 -7 0
-12 -9 -12 -19 0 -11 -4 -22 -9 -26 -5 -3 -21 -26 -35 -51 -21 -37 -24 -50
-14 -61 9 -11 8 -25 -5 -61 -31 -88 -76 -279 -112 -477 -10 -49 -23 -108 -30
-130 -7 -23 -18 -68 -24 -100 -18 -100 -61 -549 -61 -634 0 -44 -5 -83 -10
-86 -32 -20 19 -782 67 -1000 38 -175 69 -293 90 -350 11 -27 25 -72 31 -100
7 -27 23 -75 36 -105 13 -30 31 -72 40 -93 9 -21 16 -47 16 -58 0 -18 105
-238 119 -249 3 -3 17 -27 30 -55 14 -27 29 -54 33 -60 5 -5 24 -32 41 -60 50
-77 105 -154 158 -222 27 -35 49 -65 49 -68 0 -3 10 -16 23 -29 12 -13 63 -69
112 -126 96 -110 135 -150 185 -190 17 -14 44 -36 60 -50 33 -29 59 -48 91
-70 12 -8 30 -22 39 -31 9 -9 37 -30 61 -46 24 -17 60 -45 79 -62 19 -17 40
-31 45 -31 6 0 48 -27 95 -61 81 -58 426 -239 456 -239 8 0 47 -16 87 -36 l72
-37 75 18 c41 10 86 23 100 30 14 7 59 20 100 29 41 9 92 23 113 31 40 16 98
38 162 62 49 18 261 124 330 164 28 16 62 34 78 40 15 6 27 14 27 18 0 4 16
15 36 24 19 10 40 22 47 27 28 24 56 46 77 60 12 8 30 22 40 30 10 8 28 22 40
30 12 8 30 22 40 30 10 8 49 40 86 70 139 111 393 401 451 514 13 27 29 54 34
60 40 47 49 60 49 67 0 4 7 15 16 23 19 20 132 255 138 289 2 13 16 47 30 75
28 56 47 105 77 202 11 36 27 85 35 110 46 136 111 486 128 690 43 512 18
1172 -59 1515 -13 61 -31 151 -39 200 -43 263 -98 475 -122 475 -7 0 -20 10
-29 22 -8 13 -37 39 -64 58 -27 19 -87 63 -134 97 -171 124 -429 263 -642 346
-340 132 -613 193 -990 220 l-160 12 -3 370 c-2 367 -2 370 19 388 27 22 128
23 214 2 80 -19 193 -19 241 0 84 34 181 101 277 194 64 62 73 87 30 77 -60
-14 -191 -18 -245 -7 -82 15 -152 52 -233 121 -94 81 -158 111 -245 118 -39 2
-70 9 -70 13 0 16 -28 9 -34 -8z m1574 -2018 c149 -42 251 -88 350 -154 25
-17 57 -31 72 -31 30 0 68 34 68 62 0 10 4 18 9 18 4 0 18 -48 30 -107 12 -60
31 -146 41 -193 10 -47 21 -110 25 -140 4 -30 13 -84 21 -120 8 -36 17 -103
19 -150 3 -47 11 -150 19 -230 24 -228 39 -589 27 -641 -6 -24 -11 -76 -11
-115 0 -177 -59 -688 -80 -704 -4 -3 -17 -48 -29 -100 -33 -141 -48 -200 -65
-250 -8 -25 -22 -70 -31 -100 -35 -120 -98 -262 -198 -450 -23 -41 -47 -81
-54 -88 -7 -7 -13 -17 -13 -21 0 -7 -9 -19 -49 -67 -5 -6 -16 -26 -26 -44 -69
-133 -370 -442 -545 -560 -12 -8 -30 -22 -40 -30 -10 -8 -28 -22 -40 -30 -12
-8 -30 -22 -40 -30 -10 -8 -28 -22 -40 -30 -12 -8 -28 -20 -34 -26 -7 -6 -28
-19 -46 -29 -19 -10 -37 -21 -40 -24 -9 -11 -105 -61 -185 -96 -22 -10 -69
-31 -105 -48 -35 -16 -76 -33 -90 -38 -26 -8 -68 -24 -160 -59 -30 -12 -95
-33 -144 -46 -49 -14 -96 -30 -105 -35 -49 -27 -85 -26 -151 4 -168 78 -393
195 -468 244 -45 29 -97 59 -115 67 -18 7 -39 20 -47 28 -8 7 -37 29 -65 48
-27 18 -57 39 -65 47 -22 20 -55 46 -80 63 -12 8 -35 26 -51 40 -15 14 -42 36
-59 50 -125 101 -363 369 -480 540 -19 29 -45 64 -57 78 -35 42 -37 44 -62 97
-14 28 -28 52 -32 55 -7 5 -124 244 -172 355 -15 33 -32 83 -39 110 -6 28 -20
73 -31 100 -10 28 -30 95 -43 150 -14 55 -36 138 -50 185 -50 169 -98 622 -96
905 2 228 38 638 72 825 11 58 22 130 25 160 3 30 15 106 27 168 l22 113 43
19 c23 10 62 32 85 48 43 29 178 97 292 146 32 14 74 26 92 26 64 0 93 -60 58
-120 -24 -40 -12 -76 32 -95 78 -33 227 -16 534 60 133 32 159 37 232 42 75 6
77 5 107 -25 17 -17 31 -35 31 -40 0 -24 -54 -70 -125 -107 -80 -41 -148 -104
-139 -128 9 -25 124 -57 199 -57 109 0 372 36 570 77 152 31 184 41 210 64 30
27 30 28 13 57 -47 80 -4 105 182 104 102 0 135 -4 180 -21 30 -12 63 -21 73
-21 23 0 22 27 -3 68 -25 41 -26 78 -1 92 47 25 86 12 343 -118 332 -168 385
-184 467 -142 54 27 67 68 42 124 -22 50 -45 72 -136 128 -113 69 -143 97
-129 119 11 18 153 3 254 -26z m-3365 -1 c0 -11 -23 -46 -52 -78 l-52 -57 13
43 c22 69 36 102 49 110 20 13 42 4 42 -18z"/>
<path d="M4965 4130 c-27 -5 -84 -10 -125 -13 -89 -6 -165 -24 -181 -43 -6 -8
-18 -14 -25 -14 -8 0 -14 -4 -14 -9 0 -4 -20 -16 -45 -25 -25 -10 -45 -21 -45
-25 0 -5 -8 -12 -19 -17 -18 -9 -137 -143 -179 -201 -26 -36 -58 -116 -66
-163 -3 -19 -10 -55 -16 -80 -6 -25 -15 -79 -19 -120 -10 -86 -1 -106 66 -153
22 -15 65 -59 97 -97 97 -119 241 -175 436 -171 154 3 232 22 383 97 75 37
137 71 137 76 0 4 6 8 14 8 23 0 131 94 223 195 7 7 24 35 38 61 14 26 31 55
38 64 56 68 71 199 38 327 -26 100 -76 168 -152 205 -96 47 -135 61 -213 73
-78 13 -121 17 -271 29 -27 2 -72 0 -100 -4z"/>
<path d="M2225 4110 c-33 -5 -108 -13 -167 -19 -97 -10 -155 -24 -204 -49 -11
-5 -37 -18 -58 -28 -81 -39 -130 -104 -157 -207 -33 -128 -18 -259 38 -327 7
-9 24 -38 38 -64 14 -26 31 -54 38 -61 92 -101 200 -195 223 -195 8 0 14 -4
14 -8 0 -13 265 -141 315 -152 25 -6 88 -15 139 -20 l94 -10 73 36 c41 20 79
37 84 39 11 2 20 6 110 42 73 30 157 74 167 88 4 5 8 6 8 2 0 -11 79 69 113
115 24 31 25 37 16 108 -4 41 -13 95 -19 120 -6 25 -13 61 -16 80 -8 47 -40
127 -66 163 -36 50 -160 192 -177 201 -9 5 -18 13 -21 17 -8 11 -167 79 -225
95 -27 8 -87 19 -132 24 -46 5 -102 11 -125 13 -24 3 -70 1 -103 -3z"/>
<path d="M3561 2234 c-253 -68 -410 -331 -346 -579 67 -256 329 -415 580 -350
256 67 415 329 350 578 -67 259 -333 419 -584 351z"/>
</g>
</svg>
