<?xml version="1.0" standalone="no"?>
<!DOCTYPE svg PUBLIC "-//W3C//DTD SVG 20010904//EN"
 "http://www.w3.org/TR/2001/REC-SVG-20010904/DTD/svg10.dtd">
<svg version="1.0" xmlns="http://www.w3.org/2000/svg"
 width="1353.000000pt" height="1194.000000pt" viewBox="0 0 1353.000000 1194.000000"
 preserveAspectRatio="xMidYMid meet">

<g transform="translate(0.000000,1194.000000) scale(0.100000,-0.100000)"
fill="#000000" stroke="none">
<path d="M7618 10715 c-3 -3 -18 -7 -34 -9 -49 -6 -163 -66 -186 -97 -12 -15
-25 -26 -29 -23 -4 2 -26 -22 -47 -54 -22 -32 -47 -64 -56 -71 -9 -7 -16 -17
-16 -22 0 -8 -38 -68 -66 -104 -8 -11 -22 -35 -31 -52 -8 -18 -19 -33 -24 -33
-4 0 -11 -16 -15 -37 -9 -46 9 -97 50 -144 17 -20 38 -44 48 -55 19 -22 54
-47 127 -91 64 -39 116 -43 184 -13 45 20 132 105 161 158 45 80 66 130 66
155 0 30 -17 37 -27 10 -17 -53 -70 -160 -88 -177 -11 -12 -32 -36 -48 -55
-32 -38 -114 -81 -156 -81 -21 0 -51 18 -107 65 -44 36 -83 76 -89 88 -5 13
-22 38 -37 56 -27 32 -39 91 -18 91 5 0 18 19 30 43 11 23 30 56 43 72 12 17
37 49 54 73 36 49 101 122 108 122 3 0 25 15 49 34 26 20 81 45 131 61 128 41
161 33 315 -76 52 -37 191 -208 220 -271 11 -24 35 -71 54 -104 33 -59 34 -65
35 -180 4 -310 -6 -883 -16 -904 -3 -8 -9 -64 -13 -125 -17 -276 -33 -445 -46
-502 -8 -34 -14 -89 -14 -122 0 -34 -5 -80 -10 -103 -20 -84 -41 -194 -51
-268 -6 -41 -17 -97 -24 -125 -29 -109 -98 -321 -110 -335 -6 -8 -20 -33 -30
-55 -10 -22 -21 -42 -25 -45 -4 -3 -15 -30 -25 -60 -10 -30 -33 -71 -51 -90
-18 -19 -51 -56 -74 -82 -24 -27 -47 -48 -52 -48 -8 0 -20 -8 -52 -37 -18 -16
-135 -55 -145 -49 -11 7 -51 -23 -51 -38 0 -7 8 -22 18 -34 19 -22 73 -25 527
-38 146 -4 290 -17 350 -33 22 -5 101 -17 175 -26 131 -16 307 -58 400 -94 25
-10 68 -24 95 -31 28 -7 70 -23 95 -36 25 -12 79 -37 120 -54 120 -51 282
-175 324 -248 6 -11 25 -44 43 -74 27 -45 37 -75 42 -120 1 -5 8 -8 17 -8 13
0 15 8 10 38 -2 21 -10 50 -15 65 -21 53 -100 163 -157 216 -61 57 -225 168
-296 201 -24 11 -57 29 -74 39 -17 10 -71 31 -120 45 -49 15 -98 31 -109 36
-11 5 -49 16 -85 25 -36 9 -78 20 -95 25 -16 5 -50 12 -75 15 -47 6 -111 22
-145 35 -55 22 -534 77 -684 79 l-55 1 35 28 c33 26 57 49 131 128 20 21 40
51 43 67 4 15 15 33 24 40 15 11 61 95 61 112 0 4 10 24 23 44 25 40 63 136
78 195 5 21 16 48 24 60 8 11 15 29 15 40 0 11 4 33 9 50 26 82 40 146 46 201
3 33 13 75 22 94 8 18 17 52 20 75 8 76 12 101 13 101 1 0 3 46 5 103 2 57 8
108 13 115 9 11 15 61 28 217 11 145 30 569 26 600 -2 14 -5 133 -7 265 -2
132 -6 263 -9 290 -3 28 -5 105 -6 172 l-2 121 -51 77 c-29 42 -68 103 -87
135 -66 109 -201 258 -267 295 -78 43 -155 65 -229 65 -39 0 -73 -2 -76 -5z"/>
<path d="M1460 8958 c-23 -29 -47 -61 -55 -70 -8 -9 -21 -30 -29 -47 -9 -16
-21 -35 -28 -43 -7 -7 -25 -31 -39 -53 -14 -22 -46 -71 -71 -110 -25 -38 -53
-85 -63 -104 -9 -19 -21 -39 -26 -45 -47 -56 -199 -346 -199 -379 0 -8 -10
-29 -23 -48 -37 -55 -103 -281 -113 -384 -2 -22 -6 -83 -8 -134 -3 -87 0 -104
31 -198 31 -90 41 -109 91 -162 58 -61 127 -113 197 -149 22 -11 42 -20 45
-20 6 -1 9 -2 95 -31 33 -11 77 -22 99 -25 21 -4 42 -8 45 -11 4 -2 39 -7 77
-11 65 -6 125 -7 274 -4 36 1 70 1 75 0 6 -2 15 -1 20 0 6 2 39 4 75 6 70 3
136 10 185 18 17 3 54 8 83 11 29 3 65 11 80 17 15 6 36 13 47 15 10 2 28 9
40 17 11 7 50 23 87 35 37 13 70 26 73 31 5 8 333 115 430 140 28 7 77 17 110
22 33 5 76 12 95 15 60 11 228 7 243 -5 8 -7 17 -9 20 -5 4 3 7 1 7 -5 0 -7 6
-12 14 -12 7 0 19 -7 26 -15 7 -8 16 -12 21 -9 5 3 9 -2 9 -10 0 -9 4 -16 9
-16 8 0 20 -32 27 -75 12 -74 13 -95 4 -95 -5 0 -6 -9 -1 -22 4 -13 5 -30 0
-38 -4 -8 -15 -40 -23 -70 -35 -120 -49 -166 -58 -190 -6 -14 -9 -27 -8 -29 1
-2 -2 -7 -7 -10 -8 -6 -77 -146 -79 -162 -1 -5 -2 -13 -3 -18 0 -5 -7 -16 -14
-23 -7 -7 -41 -67 -76 -133 -34 -66 -66 -122 -69 -125 -4 -3 -37 -50 -73 -105
-74 -112 -145 -218 -254 -380 -113 -167 -119 -175 -136 -193 -8 -9 -29 -35
-45 -57 -32 -44 -61 -80 -84 -104 -43 -46 -100 -120 -100 -129 0 -6 -6 -15
-13 -19 -7 -4 -36 -44 -64 -88 -29 -44 -69 -100 -90 -124 -125 -146 -137 -161
-152 -188 -6 -12 -17 -27 -24 -35 -30 -31 -77 -97 -77 -107 0 -27 33 -6 72 47
24 31 45 59 48 62 3 3 17 23 32 45 14 22 39 54 55 70 16 17 58 66 92 110 35
44 71 87 81 95 9 8 25 29 36 45 18 28 48 65 104 126 14 15 41 46 59 69 19 24
40 48 46 54 5 6 18 24 28 39 22 34 43 60 82 101 17 18 37 43 45 55 21 33 110
145 120 151 7 5 25 30 162 231 33 48 67 95 77 106 10 10 30 41 46 68 16 28 32
52 35 55 4 3 30 50 58 105 28 55 67 124 86 153 19 30 40 67 46 83 7 16 16 29
20 29 4 0 13 18 20 40 7 22 17 40 22 40 5 0 6 5 3 10 -3 6 -2 10 2 10 5 0 15
21 22 48 8 26 17 52 20 57 3 6 7 21 9 35 2 13 12 45 22 70 26 62 43 164 35
214 -9 58 -47 176 -57 176 -4 0 -8 4 -8 10 0 17 -41 58 -71 70 -16 7 -29 16
-29 20 0 16 -106 38 -211 45 -38 2 -72 6 -76 8 -11 6 -205 -22 -288 -42 -80
-20 -458 -142 -480 -156 -11 -6 -50 -22 -87 -34 -38 -13 -68 -26 -68 -29 0 -4
-21 -17 -47 -29 -49 -21 -137 -36 -318 -54 -55 -5 -127 -12 -160 -16 -81 -8
-223 -8 -320 2 -44 4 -86 7 -92 8 -7 0 -13 4 -13 9 0 4 -15 8 -33 8 -18 0 -38
5 -45 12 -7 7 -12 9 -12 5 0 -4 -9 -3 -19 3 -11 5 -35 12 -54 14 -54 7 -154
83 -228 173 -9 11 -29 57 -44 102 -21 65 -27 100 -26 169 0 48 3 98 6 112 9
40 27 133 30 160 2 14 11 54 20 90 9 36 17 70 18 77 2 6 25 60 51 120 26 59
58 130 70 158 11 27 32 65 45 85 13 19 49 85 81 145 31 61 65 124 77 140 34
50 97 145 118 179 11 18 44 62 73 99 28 37 52 71 52 77 0 25 -33 5 -70 -42z"/>
<path d="M5463 8020 c-18 -21 -33 -43 -33 -48 0 -4 -12 -19 -26 -33 -14 -13
-33 -37 -41 -54 -9 -16 -19 -32 -23 -35 -13 -9 -85 -142 -114 -210 -3 -8 -10
-22 -16 -30 -5 -8 -15 -28 -20 -44 l-10 -28 -35 43 c-19 24 -35 49 -35 55 0 7
-7 14 -15 18 -8 3 -15 13 -16 23 -1 33 -126 136 -266 218 -35 20 -63 41 -63
46 0 5 -7 9 -16 9 -8 0 -22 7 -31 16 -18 18 -40 4 -27 -18 5 -7 9 -15 9 -18 1
-10 40 -66 70 -98 16 -18 34 -45 41 -60 17 -40 92 -112 157 -152 32 -19 75
-47 94 -62 20 -16 41 -28 47 -28 6 0 22 -12 35 -25 22 -24 23 -27 10 -73 -7
-26 -14 -49 -15 -52 0 -3 -3 -12 -7 -20 -11 -29 -29 -125 -33 -180 -6 -96 31
-334 57 -366 5 -6 13 -31 18 -55 13 -63 30 -105 73 -178 21 -35 41 -74 44 -87
3 -13 10 -24 15 -24 6 0 28 -29 50 -65 23 -36 45 -65 50 -65 17 0 9 37 -16 74
-14 20 -25 43 -25 51 0 7 -7 26 -15 42 -96 187 -125 406 -91 678 3 22 12 90
20 150 15 103 20 133 45 245 5 25 24 73 40 108 17 34 31 72 31 83 0 21 37 102
65 142 8 12 15 28 15 35 0 8 14 31 30 52 53 67 27 87 -27 20z"/>
<path d="M3829 8043 c-1 -5 -1 -12 0 -16 1 -5 4 -27 7 -50 3 -23 6 -49 8 -57
2 -8 6 -33 10 -55 4 -22 14 -60 21 -85 12 -40 27 -108 30 -135 4 -35 18 -75
26 -75 5 0 9 -6 9 -12 0 -7 12 -35 25 -63 14 -27 25 -60 25 -71 0 -12 7 -24
15 -28 8 -3 15 -10 15 -16 0 -5 8 -19 18 -29 34 -38 41 -50 48 -75 3 -14 10
-26 14 -26 5 0 11 -13 15 -30 4 -16 10 -30 15 -30 5 0 11 -13 15 -30 4 -17 13
-30 22 -30 12 0 14 6 8 28 -4 15 -8 36 -10 47 -2 11 -8 44 -14 74 -6 30 -9 56
-7 59 3 2 -2 23 -10 45 -15 41 -17 53 -29 130 -7 51 12 80 102 157 53 45 65
49 106 33 20 -8 37 -19 37 -24 0 -5 6 -9 13 -9 8 0 27 -25 42 -55 16 -30 32
-55 35 -55 4 0 17 -34 30 -75 14 -44 29 -75 37 -75 7 0 13 -6 13 -13 0 -7 9
-28 19 -48 11 -19 25 -54 32 -77 7 -23 15 -42 19 -42 5 0 11 -12 15 -27 3 -16
17 -51 30 -78 13 -28 27 -63 30 -78 6 -23 12 -28 34 -25 22 2 26 8 26 33 0 17
-5 48 -12 69 -7 22 -11 41 -9 44 3 2 0 15 -5 29 -5 14 -12 43 -14 64 -3 21 -9
49 -14 62 -6 14 -8 27 -5 30 2 2 0 17 -6 32 -6 15 -12 43 -15 63 -2 20 -9 38
-14 41 -4 3 -12 25 -16 49 -4 23 -11 42 -16 42 -6 0 -7 4 -4 10 8 13 -20 58
-75 118 -11 12 -20 25 -20 30 -1 11 -76 62 -94 62 -8 0 -17 4 -21 9 -9 16
-117 7 -157 -13 -50 -24 -109 -84 -140 -140 l-16 -31 -19 40 c-10 22 -20 42
-23 45 -3 3 -16 27 -29 54 -13 27 -31 56 -41 66 -9 9 -23 31 -31 48 -8 18 -17
32 -21 32 -5 0 -8 5 -8 11 0 18 -53 129 -62 129 -4 0 -9 -3 -9 -7z"/>
<path d="M9590 7961 c-127 -9 -280 -42 -280 -60 0 -11 11 -12 58 -5 120 17
377 8 437 -15 85 -34 125 -58 161 -94 75 -77 84 -178 33 -375 -17 -64 -34
-123 -39 -132 -7 -13 -20 -15 -87 -9 -240 22 -299 25 -414 19 -121 -6 -129 -8
-178 -39 -41 -27 -53 -41 -62 -74 -26 -97 17 -155 165 -226 47 -23 89 -41 94
-41 4 0 27 -9 51 -21 53 -25 170 -66 237 -83 68 -17 74 -22 74 -59 0 -47 52
-149 94 -183 27 -23 56 -34 124 -47 108 -21 112 -21 112 -3 0 10 -20 18 -57
26 -32 6 -70 16 -85 22 -36 13 -95 91 -109 142 -20 75 12 216 77 341 26 50 54
104 62 120 9 17 23 37 33 45 9 9 25 43 34 75 9 33 25 92 37 130 21 73 26 248
9 269 -5 6 -15 31 -22 55 -20 67 -80 124 -184 175 -83 40 -99 44 -185 49 -52
2 -138 1 -190 -2z m340 -750 c0 -6 -4 -13 -10 -16 -5 -3 -10 -14 -10 -24 0
-10 -9 -44 -20 -77 -29 -81 -50 -181 -50 -230 0 -38 -2 -41 -24 -37 -14 3 -33
13 -43 23 -11 10 -39 27 -64 39 -24 11 -73 39 -109 62 -36 23 -75 45 -87 50
-13 5 -23 13 -23 18 0 5 -8 12 -17 15 -22 7 -107 85 -101 92 7 6 131 43 188
55 25 6 86 14 135 19 50 6 99 12 110 14 43 7 125 6 125 -3z"/>
<path d="M6480 6903 c0 -340 -3 -627 -6 -638 -5 -19 -14 -20 -122 -23 -421 -9
-890 -127 -1294 -328 -131 -64 -317 -173 -354 -205 -11 -11 -28 -19 -37 -19
-9 0 -17 -6 -17 -12 0 -7 -14 -42 -32 -77 -23 -44 -29 -65 -21 -68 10 -3 9
-13 -3 -41 -27 -67 -81 -289 -119 -497 -10 -49 -23 -108 -30 -130 -7 -23 -18
-68 -24 -100 -18 -100 -61 -549 -61 -634 0 -44 -4 -83 -10 -86 -32 -20 19
-782 67 -1000 38 -175 69 -293 90 -350 11 -27 25 -72 31 -100 7 -27 23 -75 36
-105 13 -30 31 -72 40 -93 9 -21 16 -47 16 -58 0 -18 105 -238 119 -249 3 -3
17 -27 30 -55 14 -27 29 -54 33 -60 5 -5 24 -32 41 -60 50 -77 105 -154 158
-222 27 -35 49 -65 49 -68 0 -3 10 -16 23 -29 12 -13 63 -69 112 -126 96 -110
135 -150 185 -190 17 -14 44 -36 60 -50 33 -29 59 -48 91 -70 12 -8 30 -22 39
-31 9 -9 37 -30 61 -46 24 -17 60 -45 79 -62 19 -17 40 -31 45 -31 6 0 48 -27
95 -61 81 -58 426 -239 456 -239 8 0 47 -16 87 -36 l72 -37 75 18 c41 10 86
23 100 30 14 7 59 20 100 29 41 9 91 23 110 30 51 20 120 46 165 63 49 18 261
124 330 164 28 16 62 34 78 40 15 6 27 14 27 18 0 4 16 15 36 24 19 10 40 22
47 27 28 24 56 46 77 60 12 8 30 22 40 30 10 8 28 22 40 30 12 8 30 22 40 30
10 8 49 40 86 70 139 111 393 401 451 514 13 27 29 54 34 60 40 47 49 60 49
67 0 4 7 15 16 23 19 20 132 255 138 289 2 13 16 47 30 75 28 56 47 105 77
202 11 36 27 85 35 110 46 136 111 486 128 690 43 512 18 1172 -59 1515 -13
61 -31 151 -39 200 -43 263 -98 475 -122 475 -7 0 -19 9 -26 19 -7 10 -64 56
-125 102 -491 368 -1071 579 -1703 619 -84 5 -158 14 -163 19 -5 5 -9 164 -8
373 1 358 1 363 22 381 31 25 116 25 232 1 106 -22 172 -18 248 15 72 30 198
122 269 195 51 54 47 72 -15 55 -22 -6 -83 -9 -140 -7 -123 6 -190 30 -272 99
-142 118 -211 149 -330 149 l-63 0 0 -617z m1591 -1397 c107 -30 209 -74 314
-137 45 -27 90 -49 100 -49 24 0 65 39 65 62 0 10 4 18 9 18 4 0 18 -48 30
-107 12 -60 31 -146 41 -193 10 -47 21 -110 25 -140 4 -30 13 -84 21 -120 8
-36 17 -103 19 -150 3 -47 11 -150 19 -230 24 -228 39 -589 27 -641 -6 -24
-11 -76 -11 -115 0 -177 -59 -688 -80 -704 -4 -3 -17 -48 -29 -100 -33 -142
-48 -200 -65 -250 -8 -25 -24 -74 -35 -110 -11 -36 -34 -105 -51 -154 -17 -49
-33 -108 -37 -130 -8 -55 -68 -188 -115 -256 -21 -30 -54 -79 -74 -107 -19
-29 -39 -53 -44 -53 -4 0 -27 -18 -49 -40 -22 -22 -44 -40 -49 -40 -4 0 -29
-28 -54 -62 -75 -102 -282 -294 -408 -378 -12 -8 -30 -22 -40 -30 -10 -8 -28
-22 -40 -30 -12 -8 -30 -22 -40 -30 -10 -8 -28 -22 -40 -30 -12 -8 -28 -20
-34 -26 -7 -6 -28 -19 -46 -29 -19 -10 -37 -21 -40 -24 -9 -11 -105 -61 -185
-96 -22 -10 -69 -31 -105 -48 -35 -16 -76 -33 -90 -38 -26 -8 -68 -24 -160
-59 -30 -12 -95 -33 -144 -46 -49 -14 -96 -30 -105 -35 -49 -27 -85 -26 -151
4 -168 78 -393 195 -468 244 -45 29 -97 59 -115 67 -18 7 -39 20 -47 28 -8 7
-37 29 -65 48 -27 18 -57 39 -65 47 -22 20 -55 46 -80 63 -12 8 -35 26 -51 40
-15 14 -42 36 -59 50 -125 101 -363 369 -480 540 -19 29 -45 64 -57 78 -35 42
-37 44 -62 97 -14 28 -28 52 -32 55 -7 5 -124 244 -172 355 -15 33 -32 83 -39
110 -6 28 -20 73 -31 100 -10 28 -30 95 -43 150 -14 55 -36 138 -50 185 -50
169 -98 622 -96 905 2 228 38 638 72 825 11 58 22 130 25 160 3 30 15 106 27
169 l23 114 43 18 c24 10 62 32 85 47 42 29 178 97 291 146 129 57 212 7 155
-92 -22 -38 -22 -41 -6 -65 31 -48 148 -60 295 -32 110 21 222 46 257 57 60
18 228 48 271 48 87 0 135 -51 100 -104 -8 -13 -52 -44 -96 -67 -86 -46 -153
-103 -148 -128 5 -24 116 -60 188 -60 156 -2 683 84 758 123 49 25 58 43 39
76 -47 79 -2 104 188 103 109 0 139 -4 188 -23 76 -29 91 -18 59 43 -28 53
-28 83 -1 98 35 18 101 5 185 -38 44 -22 156 -78 249 -126 169 -85 253 -117
306 -117 45 0 97 30 114 67 15 31 15 36 -3 75 -23 52 -46 73 -137 130 -113 70
-143 97 -129 119 11 18 163 4 265 -25z m-3371 9 c10 -13 6 -22 -27 -58 -22
-24 -48 -56 -58 -71 -28 -43 -28 -24 1 63 24 68 31 81 50 81 12 0 27 -7 34
-15z"/>
<path d="M7900 4467 c-3 -3 -54 -10 -115 -16 -60 -6 -131 -18 -157 -25 -49
-15 -199 -84 -208 -96 -3 -4 -12 -11 -21 -16 -17 -9 -141 -151 -177 -201 -26
-36 -58 -116 -66 -163 -3 -19 -10 -55 -16 -80 -6 -25 -14 -79 -19 -120 -8 -80
-1 -106 33 -116 10 -4 64 -53 120 -110 87 -89 112 -108 181 -140 44 -20 100
-39 125 -42 25 -2 50 -9 57 -14 14 -12 133 -3 251 18 64 11 115 30 218 81 74
36 134 70 134 75 0 4 6 8 14 8 23 0 131 94 223 195 7 7 24 35 38 61 14 26 31
55 38 64 56 68 71 199 38 327 -26 100 -76 168 -152 205 -125 61 -143 66 -349
88 -58 6 -123 14 -145 16 -22 3 -42 3 -45 1z"/>
<path d="M5115 4440 c-33 -5 -108 -13 -167 -19 -97 -10 -155 -24 -204 -49 -11
-5 -37 -18 -58 -28 -81 -39 -130 -104 -157 -207 -33 -128 -18 -259 38 -327 7
-9 24 -38 38 -64 14 -26 31 -54 38 -61 92 -101 200 -195 223 -195 8 0 14 -4
14 -8 0 -5 62 -39 137 -76 94 -47 159 -72 210 -82 91 -17 193 -20 219 -6 30
17 136 62 144 62 4 0 34 12 66 27 33 15 61 27 64 28 16 3 141 71 171 94 31 23
71 64 106 111 12 16 3 125 -17 210 -6 25 -13 61 -16 80 -8 47 -40 127 -66 163
-36 50 -160 192 -177 201 -9 5 -18 13 -21 17 -8 11 -167 79 -225 95 -27 8 -87
19 -132 24 -46 5 -102 11 -125 13 -24 3 -70 1 -103 -3z"/>
<path d="M6451 2564 c-253 -68 -410 -331 -346 -579 67 -256 329 -415 580 -350
256 67 415 329 350 578 -67 259 -333 419 -584 351z"/>
<path d="M10790 7373 c0 -9 7 -24 15 -33 21 -23 34 -149 24 -225 -9 -72 -34
-168 -53 -204 -18 -33 -43 -99 -51 -131 -8 -33 -38 -94 -47 -98 -5 -2 -8 -11
-8 -21 0 -32 -89 -232 -111 -251 -12 -10 -69 -123 -69 -136 0 -24 25 -15 42
14 9 15 46 56 83 92 36 36 78 85 93 110 14 25 32 51 39 58 7 7 13 17 13 21 0
5 10 19 23 32 68 71 109 155 131 264 l11 60 60 -3 c33 -2 70 -10 82 -18 12 -8
30 -14 39 -14 33 0 85 -42 106 -86 17 -37 19 -55 13 -112 -9 -94 -52 -257 -85
-321 -4 -9 -20 -42 -35 -74 -15 -31 -31 -60 -36 -62 -4 -3 -10 -18 -14 -34 -3
-16 -12 -35 -20 -41 -7 -6 -16 -23 -20 -37 -3 -15 -15 -39 -26 -54 -22 -31
-25 -59 -6 -59 7 0 18 9 25 20 23 38 125 160 132 160 5 0 26 28 49 63 22 34
54 80 70 102 17 22 34 47 37 55 4 8 15 26 24 40 28 42 49 123 56 214 5 62 4
86 -5 86 -6 0 -11 11 -11 25 0 29 -60 112 -98 137 -77 49 -84 51 -209 52 -134
1 -128 -2 -124 61 1 29 -25 182 -43 242 -8 29 -26 65 -40 80 -14 15 -26 31
-26 35 0 5 -7 8 -15 8 -8 0 -15 -8 -15 -17z"/>
<path d="M12544 7148 c-16 -13 -30 -26 -32 -30 -2 -5 -9 -8 -16 -8 -18 0 -72
-78 -96 -139 -11 -29 -29 -61 -39 -73 -11 -11 -32 -54 -47 -94 -15 -41 -31
-74 -35 -74 -5 0 -9 -7 -9 -15 0 -8 -4 -15 -9 -15 -4 0 -25 -44 -46 -97 -20
-54 -45 -111 -55 -128 -9 -16 -30 -63 -45 -102 -26 -68 -45 -92 -45 -59 0 7
-7 19 -15 26 -9 7 -13 15 -10 18 2 3 -18 28 -46 56 -29 28 -58 61 -66 73 -19
29 -145 92 -195 99 -37 4 -72 -3 -140 -30 -16 -6 -28 -14 -28 -18 0 -5 -5 -8
-11 -8 -7 0 -22 -11 -35 -25 -13 -14 -27 -25 -31 -25 -5 0 -22 -26 -37 -57
-16 -32 -37 -65 -46 -73 -19 -16 -70 -144 -70 -173 0 -10 -4 -26 -9 -35 -14
-27 -19 -94 -8 -127 5 -16 8 -49 8 -72 -3 -120 88 -332 158 -369 19 -11 36
-18 38 -17 1 1 20 -4 40 -11 21 -7 46 -12 56 -10 20 3 103 38 127 54 8 6 26
16 40 22 14 7 38 25 55 40 16 15 31 26 32 24 2 -1 -8 -30 -22 -64 -14 -34 -25
-73 -25 -86 0 -28 -28 -143 -41 -167 -7 -14 -13 -75 -24 -244 -4 -66 26 -122
71 -131 42 -8 120 20 156 55 38 37 19 53 -24 21 -16 -12 -35 -23 -41 -24 -7
-1 -17 -5 -23 -8 -6 -4 -24 -10 -41 -13 -27 -4 -31 -2 -36 23 -14 72 7 248 39
326 13 33 24 67 24 76 0 20 90 253 101 260 11 8 49 112 49 137 0 12 6 28 13
35 8 7 28 51 46 98 18 46 41 91 50 100 9 8 32 56 51 105 18 50 40 98 48 107 8
9 11 22 7 27 -3 6 -2 11 3 11 5 0 12 18 16 40 3 21 16 49 29 60 12 12 22 24
23 28 0 4 6 20 12 35 7 16 12 35 12 42 0 18 39 118 49 125 11 9 31 60 31 82 0
12 11 40 25 64 14 23 31 68 40 99 8 32 26 72 40 91 14 18 25 36 25 40 0 4 10
15 21 25 21 18 22 18 45 -8 12 -14 27 -35 32 -47 27 -58 36 -82 37 -91 0 -5 3
-12 7 -15 4 -3 10 -24 12 -45 3 -22 12 -58 20 -80 14 -38 13 -42 -11 -85 -44
-75 -47 -80 -60 -80 -13 0 -56 83 -61 119 -5 34 -31 83 -43 79 -13 -4 -12 -9
2 -75 7 -29 16 -53 21 -53 4 0 8 -8 8 -17 0 -27 43 -82 73 -92 37 -14 70 18
113 109 32 67 9 316 -33 358 -7 7 -13 20 -13 27 0 8 -11 26 -25 41 -14 15 -25
31 -25 36 0 11 -62 38 -88 38 -11 0 -32 -10 -48 -22z m-767 -662 c26 -3 59
-18 90 -40 73 -53 194 -173 194 -193 1 -35 -11 -87 -20 -92 -10 -7 -71 -160
-71 -180 0 -8 -8 -39 -19 -70 -10 -31 -26 -81 -36 -111 -13 -43 -25 -62 -53
-80 -20 -14 -40 -24 -44 -22 -4 1 -8 -2 -8 -6 0 -5 -16 -14 -35 -22 -19 -8
-35 -17 -35 -21 0 -8 -32 -19 -70 -25 -85 -13 -86 -13 -123 21 -58 53 -67 92
-72 286 -2 107 1 141 22 225 14 55 31 106 38 114 7 8 21 39 31 68 25 71 119
167 154 157 8 -2 34 -6 57 -9z"/>
</g>
</svg>
